<?xml version="1.0" standalone="no"?>
<!DOCTYPE svg PUBLIC "-//W3C//DTD SVG 1.1//EN" "http://www.w3.org/Graphics/SVG/1.1/DTD/svg11.dtd" >
<svg xmlns="http://www.w3.org/2000/svg" xmlns:xlink="http://www.w3.org/1999/xlink" version="1.1">
<metadata></metadata>
<defs>
<font id="reportregular" horiz-adv-x="1005" >
<font-face units-per-em="2048" ascent="1638" descent="-410" />
<missing-glyph horiz-adv-x="499" />
<glyph horiz-adv-x="0" />
<glyph horiz-adv-x="0" />
<glyph unicode="&#xd;" horiz-adv-x="499" />
<glyph unicode=" "  horiz-adv-x="499" />
<glyph unicode="&#x09;" horiz-adv-x="499" />
<glyph unicode="&#xa0;" horiz-adv-x="499" />
<glyph unicode="!" horiz-adv-x="260" d="M49 82q0 37 22.5 63.5t59.5 26.5q35 0 59.5 -26.5t24.5 -63.5t-24.5 -62.5t-59.5 -25.5q-37 0 -59.5 25.5t-22.5 62.5zM63 389v846q0 66 66 65q66 0 66 -65v-846q0 -59 -66 -59t-66 59z" />
<glyph unicode="&#x22;" horiz-adv-x="559" d="M66 1264q0 35 24.5 48t52.5 13q29 0 50.5 -13.5t21.5 -47.5l-27 -312q-8 -45 -45 -45q-41 0 -49 45zM342 1264q0 35 22.5 48t51.5 13t52.5 -13.5t23.5 -47.5l-29 -312q-4 -23 -20.5 -34t-26.5 -11q-43 0 -43 45z" />
<glyph unicode="#" horiz-adv-x="927" d="M31 483q0 63 59 64h129l51 221h-106q-59 0 -60 66q0 61 60 61h137l80 352q12 53 55 53q72 0 72 -59q0 -18 -2 -20l-76 -326h178l82 352q12 53 53 53q76 0 76 -59q-2 0 -2 -4t-1 -8t-1 -8l-76 -326h90q66 0 66 -61q0 -66 -66 -66h-120l-47 -221h92q68 0 67 -62 q0 -66 -67 -65h-121l-88 -375q-12 -45 -51 -45q-37 0 -56.5 16.5t-19.5 38.5q2 0 2 8.5t2 12.5l78 344h-178l-84 -375q-4 -23 -20.5 -34t-33.5 -11q-37 0 -55 16.5t-18 38.5q0 4 1 9.5t1 11.5l77 344h-100q-59 0 -59 63zM350 547h178l52 221h-179z" />
<glyph unicode="$" horiz-adv-x="839" d="M27 342q0 35 20.5 51.5t46.5 16.5q47 0 64 -48q14 -82 74.5 -131t134.5 -63v483q-55 25 -101.5 54.5t-80 68.5t-53 88t-19.5 113q0 63 20.5 115.5t56 89.5t81.5 60.5t96 31.5v49q0 66 51 65q57 0 57 -65v-49q51 -6 99.5 -27.5t85 -55.5t59 -80t22.5 -99 q0 -31 -19.5 -51.5t-47.5 -20.5q-55 0 -62 61q-4 59 -47 95t-90 47v-383q68 -29 128.5 -62.5t104.5 -78t70.5 -98.5t26.5 -122q0 -84 -27.5 -148.5t-74 -109.5t-105.5 -71.5t-123 -32.5v-72q0 -57 -55 -57q-53 0 -53 57v72q-72 10 -133.5 39.5t-107.5 72.5t-72.5 93.5 t-26.5 101.5zM246 975q0 -39 9 -65.5t25.5 -46t39 -34t47.5 -26.5v336q-63 -16 -92 -61.5t-29 -102.5zM475 166q78 16 136.5 70.5t58.5 156.5q0 72 -57.5 122t-137.5 85v-434z" />
<glyph unicode="%" horiz-adv-x="1243" d="M49 991q0 59 15.5 116.5t47 103.5t78.5 74t113 28q63 0 110.5 -28t78 -74t46 -103t15.5 -117q0 -57 -15.5 -114.5t-46 -103.5t-77.5 -75.5t-111 -29.5q-66 0 -114 29.5t-78.5 75.5t-46 103.5t-15.5 114.5zM172 991q0 -31 7 -65.5t22.5 -62t41 -46t60.5 -18.5 q33 0 57.5 18.5t40 46t22.5 62.5t7 65q0 33 -7 67t-22.5 61.5t-40 44t-57.5 16.5q-35 0 -60.5 -16.5t-41 -43t-22.5 -60.5t-7 -69zM211 57q0 18 8 33l701 1182q18 29 45 28q23 0 40 -14t17 -39q0 -18 -8 -33l-686 -1181q-20 -33 -56 -33q-23 0 -42 16.5t-19 40.5zM684 291 q0 59 16.5 117.5t48 104.5t79 73.5t110.5 27.5t111.5 -27.5t80 -73.5t47 -104.5t15.5 -117.5q0 -57 -15.5 -114.5t-47 -103.5t-80 -76t-111.5 -30q-66 0 -113 30t-78.5 76t-47 103t-15.5 115zM807 291q0 -31 7 -64.5t23.5 -61.5t41 -46.5t59.5 -18.5q33 0 57.5 18.5t41 46.5 t23.5 61.5t7 64.5q0 33 -7 67.5t-23.5 61t-41 44t-57.5 17.5q-35 0 -59.5 -16t-41 -43t-23.5 -61.5t-7 -69.5z" />
<glyph unicode="&#x26;" horiz-adv-x="1204" d="M49 338q0 92 34 176t99 141l199 172l-72 95q-35 47 -51 81.5t-16 81.5q0 51 17 96.5t50 79t79 53t106 19.5q61 0 109 -19.5t83 -52t53.5 -75.5t18.5 -90q0 -98 -80 -174l-115 -111l330 -426l168 162q20 25 51 24q27 0 46.5 -18t19.5 -47q0 -25 -25 -51l-178 -176 l129 -166q20 -27 20 -52q0 -29 -19.5 -45t-47.5 -16q-35 0 -58 29l-120 157l-80 -82q-59 -61 -141.5 -96t-174.5 -35q-106 0 -187 33t-136.5 85t-83 116.5t-27.5 130.5zM180 338q0 -45 22.5 -87t62.5 -75t96.5 -52.5t121.5 -19.5q70 0 123 27t99 68l96 90l-340 436 l-185 -162q-47 -41 -71.5 -100.5t-24.5 -124.5zM373 1094q0 -57 49 -113l65 -76l72 76q31 33 44 63.5t13 55.5q0 47 -35.5 73.5t-93.5 26.5q-53 0 -83.5 -29.5t-30.5 -76.5z" />
<glyph unicode="'" horiz-adv-x="256" d="M49 1264q0 35 24.5 48t53.5 13t51.5 -13.5t22.5 -47.5l-27 -312q-8 -45 -47 -45q-45 0 -47 45z" />
<glyph unicode="(" horiz-adv-x="491" d="M25 494q0 236 81 440.5t261 390.5q8 18 34 18q20 0 35 -14t15 -37q0 -20 -21 -41q-51 -51 -101 -134t-89 -184.5t-62.5 -214t-23.5 -224.5q0 -109 21.5 -217.5t57 -206t80.5 -178t95 -136.5q14 -14 14 -35q0 -23 -15.5 -38t-33.5 -15q-23 0 -43 21q-305 373 -305 805z " />
<glyph unicode=")" horiz-adv-x="491" d="M39 1292q0 23 14.5 37t34.5 14q25 0 37 -18q180 -186 260 -391t80 -440q0 -440 -303 -805q-20 -20 -45 -21q-16 0 -31.5 15.5t-15.5 37.5q0 18 12 35q49 55 95 136t81 178.5t56.5 206t21.5 217.5q0 113 -23.5 225t-62.5 212.5t-89.5 183.5t-101.5 136q-20 18 -20 41z" />
<glyph unicode="*" horiz-adv-x="788" d="M23 752q0 10 9 26.5t29 26.5l258 125l-258 125q-39 18 -38 55q0 23 16 41t41 18q20 0 37 -12l237 -162l-18 283q0 25 16.5 36t40.5 11q23 0 41.5 -11t18.5 -36l-21 -283l236 162q14 12 39 12q23 0 40 -18t17 -41q0 -37 -39 -55l-258 -125l258 -125q20 -10 29.5 -26.5 t9.5 -26.5q0 -27 -17.5 -43.5t-39.5 -16.5q-23 0 -39 10l-236 162l21 -282q0 -27 -18.5 -38.5t-41.5 -11.5q-25 0 -41 11.5t-16 38.5l18 282l-237 -162q-16 -10 -37 -10q-25 0 -41 16.5t-16 43.5z" />
<glyph unicode="+" horiz-adv-x="901" d="M8 627q0 66 72 65h305v303q0 72 68 72q63 0 63 -72v-303h311q66 0 66 -67q0 -66 -66 -66h-311v-311q0 -68 -65 -68q-66 0 -66 68v311h-305q-72 0 -72 68z" />
<glyph unicode="," horiz-adv-x="290" d="M53 84q0 43 25.5 67.5t71.5 24.5q49 0 73.5 -28.5t24.5 -69.5q0 -45 -14.5 -86t-36 -72t-45 -49t-41.5 -18q-35 0 -35 28q0 14 6 23.5t12 17.5t12.5 19.5t6.5 31.5q0 12 -9.5 21.5t-20.5 20t-20.5 25.5t-9.5 44z" />
<glyph unicode="-" horiz-adv-x="694" d="M78 442q0 66 69 66h404q63 0 63 -68q0 -66 -63 -65h-404q-70 0 -69 67z" />
<glyph unicode="." horiz-adv-x="309" d="M53 98q0 47 29 76t72 29q41 0 69.5 -29t28.5 -76q0 -45 -28.5 -73.5t-69.5 -28.5q-43 0 -72 28.5t-29 73.5z" />
<glyph unicode="/" horiz-adv-x="632" d="M8 -158q0 4 4 17l486 1427q10 23 25.5 31t31.5 8q29 0 49.5 -15.5t20.5 -45.5q0 -12 -7 -25l-483 -1417q-10 -27 -27.5 -38t-35.5 -11q-63 0 -64 69z" />
<glyph unicode="0" horiz-adv-x="1013" d="M55 643q0 174 35 304t94.5 216t141.5 128t176 42q96 0 180 -43t145.5 -129t97.5 -214t36 -298t-36 -297t-97.5 -213t-144.5 -129t-175 -43t-175 43t-144.5 129t-97.5 212t-36 292zM176 643q0 -133 25.5 -235.5t69.5 -172t104.5 -105.5t130.5 -36t131 36t106 106.5t71 174 t26 238.5q0 141 -27 245.5t-72 173.5t-106 102.5t-129 33.5q-70 0 -130.5 -33.5t-104.5 -102.5t-69.5 -175.5t-25.5 -249.5z" />
<glyph unicode="1" horiz-adv-x="417" d="M2 954q0 23 14 43l197 277q20 27 57 26q29 0 49.5 -20t20.5 -55v-1157q0 -68 -68 -68q-63 0 -63 68v979l-92 -123q-25 -33 -51 -33q-27 0 -45.5 17.5t-18.5 45.5z" />
<glyph unicode="2" horiz-adv-x="880" d="M53 1008q0 55 28 112.5t79 104.5t121.5 77.5t154.5 30.5q80 0 148.5 -30.5t119 -82t79 -116t28.5 -131.5q0 -78 -17.5 -143.5t-49 -125t-76.5 -116t-101 -117.5l-311 -340h520q61 0 62 -65q0 -66 -62 -66h-610q-47 0 -71.5 24.5t-24.5 55.5q0 29 22 57l352 402 q68 74 114 130t72.5 103t38 92t11.5 99q0 49 -20.5 92t-55.5 75.5t-81 51t-95 18.5q-98 0 -163.5 -59.5t-84.5 -145.5q-6 -27 -26.5 -39t-36.5 -12q-27 0 -45.5 15.5t-18.5 48.5z" />
<glyph unicode="3" horiz-adv-x="923" d="M43 244q0 27 20.5 43t47.5 16q14 0 32.5 -6t28.5 -27q37 -72 107.5 -119t162.5 -47q61 0 115.5 21.5t94.5 59.5t63.5 88.5t23.5 105.5q0 66 -27.5 118t-72.5 88t-102.5 55t-116.5 19q-70 0 -70 60q0 57 70 57q49 0 94 13.5t79 40t54.5 66.5t20.5 95q0 43 -17.5 81 t-48.5 66.5t-72 45t-88 16.5q-74 0 -128 -33.5t-81 -97.5q-10 -25 -27.5 -33t-31.5 -8q-27 0 -48.5 19.5t-21.5 46.5q0 30 23 59q45 78 128 129t187 51q74 0 138.5 -26.5t113.5 -71.5t78 -106.5t29 -131.5q0 -104 -45 -170.5t-123 -101.5q51 -16 95 -50t77 -80t51 -103.5 t18 -118.5q0 -84 -33.5 -157t-93 -127t-138.5 -85t-167 -31q-129 0 -224 54.5t-148 152.5q-10 14 -18.5 27.5t-8.5 36.5z" />
<glyph unicode="4" horiz-adv-x="897" d="M35 504v737q0 59 65 59q63 0 64 -59v-688h416v688q0 59 67 59q63 0 64 -59v-688h86q61 0 61 -66t-61 -65h-86v-373q0 -49 -64 -49q-68 0 -67 49v373h-465q-80 0 -80 82z" />
<glyph unicode="5" horiz-adv-x="942" d="M53 272q0 29 20.5 47.5t47.5 18.5q43 0 61 -43q37 -88 114 -139.5t169 -51.5q63 0 118.5 24t96.5 64.5t65.5 96t24.5 119.5q0 63 -24.5 118.5t-65.5 97.5t-96.5 66.5t-118.5 24.5q-57 0 -117.5 -29t-99.5 -63q-20 -18 -35.5 -28.5t-38.5 -10.5q-37 0 -64.5 24.5 t-27.5 65.5q0 6 1 13t1 18l59 518q10 78 82 77h512q68 0 68 -65q0 -66 -68 -66h-465l-47 -411q53 53 112.5 71.5t127.5 18.5q88 0 168 -35t139 -95.5t94 -140t35 -169.5t-35 -169t-94 -138.5t-139 -93.5t-168 -34q-70 0 -133.5 20.5t-115.5 56.5t-93 87t-66 113q-4 20 -4 22 z" />
<glyph unicode="6" horiz-adv-x="944" d="M41 408q0 47 8 90t29 84l295 675q10 25 25.5 34t37.5 9q25 0 46.5 -17t21.5 -46q0 -6 -10 -37l-170 -381q102 29 151 29q92 0 172 -35t139.5 -95.5t93 -140t33.5 -169.5t-33.5 -169t-93 -138.5t-139.5 -93.5t-172 -34q-90 0 -169 34t-138 93.5t-93 138t-34 169.5z M174 408q0 -63 23.5 -119t64.5 -96.5t95.5 -64.5t117.5 -24t119.5 24t98.5 64.5t65.5 96t23.5 119.5q0 63 -23.5 118.5t-65.5 97.5t-98.5 66.5t-119.5 24.5t-117.5 -24.5t-95.5 -66.5t-64.5 -97.5t-23.5 -118.5z" />
<glyph unicode="7" horiz-adv-x="823" d="M27 1237q0 63 65 63h627q47 0 66.5 -28.5t19.5 -59.5q0 -29 -2 -30l-518 -1137q-12 -25 -30.5 -35t-35.5 -10q-27 0 -45 16.5t-18 44.5q0 23 8 37l485 1071h-557q-66 0 -65 68z" />
<glyph unicode="8" horiz-adv-x="903" d="M49 373q0 55 16.5 111.5t47 104.5t71.5 84t90 52q-70 37 -113.5 111.5t-43.5 160.5q0 70 26.5 131.5t72.5 106.5t106.5 71.5t130.5 26.5q68 0 129 -26.5t106 -71.5t71.5 -106.5t26.5 -131.5q0 -86 -44 -160.5t-113 -111.5q49 -16 90 -52t71.5 -83t47 -103.5t16.5 -113.5 q0 -84 -31.5 -157t-87 -127t-128 -85t-154.5 -31q-84 0 -157 31t-128 85t-87 127t-32 157zM180 379q0 -55 21.5 -105.5t59.5 -88.5t87 -59.5t105 -21.5q55 0 104 21.5t86 59.5t58.5 88.5t21.5 105.5t-21.5 106.5t-58.5 90t-86 61t-104 22.5t-104.5 -22.5t-87.5 -61 t-59.5 -90t-21.5 -106.5zM244 991q0 -45 16 -84t45 -68.5t67 -46t81 -16.5t80.5 16.5t66.5 46t45.5 68.5t16.5 84q0 43 -16.5 81t-45.5 66.5t-66.5 45t-80.5 16.5t-81 -16.5t-67 -45t-45 -66.5t-16 -81z" />
<glyph unicode="9" horiz-adv-x="882" d="M10 930q0 84 32 157.5t87 128t128 86t155 31.5t155.5 -31.5t129 -86t87 -128t31.5 -157.5q-2 -2 -2 -31v-49l-14 -780q-2 -35 -22.5 -52.5t-43.5 -17.5q-29 0 -47 17.5t-18 52.5l8 559q-53 -47 -120 -74t-144 -27q-82 0 -155 32t-128 86t-87 127t-32 157zM145 930 q0 -53 20.5 -101.5t57.5 -85t85 -58t104 -21.5q55 0 104 19t86 55t57.5 84t20.5 108q0 57 -20.5 106t-56.5 86t-85 57.5t-106 20.5q-55 0 -103.5 -20.5t-85.5 -57.5t-57.5 -86t-20.5 -106z" />
<glyph unicode=":" horiz-adv-x="323" d="M61 98q0 47 28 76t75 29q39 0 67.5 -29t28.5 -76q0 -45 -28.5 -73.5t-67.5 -28.5q-47 0 -75 28.5t-28 73.5zM61 788q0 47 28 76t75 29q39 0 67.5 -28.5t28.5 -76.5q0 -43 -28.5 -72.5t-67.5 -29.5q-47 0 -75 29.5t-28 72.5z" />
<glyph unicode=";" horiz-adv-x="301" d="M49 84q0 43 25.5 67.5t72.5 24.5t72 -28.5t25 -69.5q0 -45 -15.5 -86t-37 -72t-45 -49t-42.5 -18q-35 0 -34 28q0 14 6 23.5t12 17.5t12 19.5t6 31.5q0 12 -9 21.5t-19 20t-19.5 25.5t-9.5 44zM53 788q0 47 29 76t72 29q41 0 69.5 -28.5t28.5 -76.5q0 -43 -28.5 -72.5 t-69.5 -29.5q-43 0 -72 29.5t-29 72.5z" />
<glyph unicode="&#x3c;" horiz-adv-x="770" d="M8 592q0 51 51 76l549 237q14 6 27 6q27 0 45 -23.5t18 -45.5q0 -29 -30 -49l-492 -201l488 -205q16 -6 25 -21.5t9 -31.5q0 -25 -16 -46.5t-43 -21.5q-8 0 -27 6l-553 240q-27 10 -39 33.5t-12 46.5z" />
<glyph unicode="=" horiz-adv-x="1032" d="M76 465q0 63 71 63h746q68 0 68 -65q0 -66 -68 -66h-746q-72 0 -71 68zM76 799q0 66 71 65h746q68 0 68 -67q0 -66 -68 -66h-746q-72 0 -71 68z" />
<glyph unicode="&#x3e;" horiz-adv-x="770" d="M74 334q0 37 35 53l489 205l-494 201q-31 14 -30 49q0 23 16 46t45 23q6 0 12.5 -1t16.5 -5l547 -237q27 -12 39 -33t12 -43q0 -23 -12.5 -46.5t-38.5 -33.5l-551 -240q-23 -6 -29 -6q-29 0 -43 21.5t-14 46.5z" />
<glyph unicode="?" horiz-adv-x="815" d="M31 1026q0 4 1 10t3 17q20 70 60 122t92.5 87.5t115 53t129.5 17.5q76 0 140.5 -25.5t112.5 -71.5t75.5 -110.5t27.5 -142.5q0 -68 -15 -120t-43 -94t-65.5 -76.5t-82.5 -67.5q-31 -29 -60.5 -54.5t-54.5 -52t-39 -56.5t-14 -67t-20.5 -54t-45.5 -17t-44 17t-19 54 q0 51 16 96.5t45 84t66 73.5t80 70q31 25 60.5 50.5t51 55t34.5 67.5t13 87q0 51 -17.5 92t-47 69.5t-68.5 44t-82 15.5q-98 0 -172 -46t-108 -150q-10 -31 -27.5 -39.5t-40.5 -8.5t-40 17.5t-17 52.5zM231 90q0 51 34 84t79 33q53 0 84 -35t31 -82t-31 -80t-84 -33 q-45 0 -79 33t-34 80z" />
<glyph unicode="@" horiz-adv-x="1380" d="M51 625q0 174 54.5 303t145.5 215t209 128t247 42q147 0 261.5 -37t193.5 -104.5t121 -162t42 -208.5q0 -115 -31.5 -202t-79 -145.5t-103.5 -89t-107 -30.5q-66 0 -91.5 18.5t-35.5 59.5q-33 -41 -86.5 -67t-112.5 -26q-66 0 -121 25t-95 68t-63.5 100t-23.5 123 t23.5 123t63.5 100t95 67.5t121 24.5q59 0 111.5 -25.5t87.5 -66.5v37q0 49 55 49q53 0 53 -49v-453q39 4 79 31t72.5 73t52 110.5t19.5 144.5q0 86 -35.5 157.5t-101 121.5t-157 79t-201.5 29q-102 0 -197.5 -37t-169.5 -106.5t-119 -171t-45 -230.5q0 -115 45 -213 t123 -172t179.5 -116t215.5 -42q90 0 157 20.5t115 45t76.5 45t43.5 20.5q35 0 54 -22.5t19 -50.5q0 -33 -41 -64q-98 -74 -205.5 -100.5t-220.5 -26.5q-143 0 -269 50.5t-220 138.5t-148.5 208.5t-54.5 260.5zM479 635q0 -92 56.5 -150.5t142.5 -58.5q92 0 145.5 58.5 t53.5 150.5q0 88 -53.5 149.5t-145.5 61.5q-86 0 -142.5 -61.5t-56.5 -149.5z" />
<glyph unicode="A" horiz-adv-x="1236" d="M27 66l526 1204q10 18 26.5 34.5t38.5 16.5q20 0 38 -15.5t28 -37.5l506 -1157q4 -12 10 -23.5t6 -21.5q0 -29 -19.5 -47.5t-45.5 -18.5q-45 0 -66 49l-164 379h-592l-161 -379q-10 -20 -27.5 -34.5t-36.5 -14.5q-29 0 -48 18.5t-19 47.5zM379 559h477l-238 549z" />
<glyph unicode="B" horiz-adv-x="899" d="M68 66v1169q0 29 17 47t46 18h246q70 0 132 -25.5t108.5 -71.5t73 -107.5t26.5 -132.5q0 -141 -96 -238q51 -18 95 -53t75.5 -81t49 -101.5t17.5 -112.5q0 -78 -30.5 -146.5t-82 -120t-121 -81t-145.5 -29.5h-348q-29 0 -46 18.5t-17 47.5zM199 131h282q51 0 96.5 19.5 t78 52.5t52 78t19.5 94q0 51 -19.5 96t-52 79t-78 53.5t-96.5 19.5h-282v-492zM199 754h178q92 0 149.5 60t57.5 149q0 43 -15.5 80.5t-43 65.5t-65.5 44t-83 16h-178v-415z" />
<glyph unicode="C" horiz-adv-x="1329" d="M51 643q0 139 53.5 264t145.5 220.5t217 150.5t268 55q276 0 465 -176q23 -23 23 -51q0 -27 -19.5 -46.5t-46.5 -19.5q-16 0 -29.5 7.5t-25.5 17.5q-72 72 -167 103.5t-200 31.5q-117 0 -218 -46t-175 -123t-117 -177t-43 -211q0 -115 45 -214t121 -172t176.5 -115 t210.5 -42q258 0 416 185q14 20 49 20q29 0 48.5 -17.5t19.5 -45.5q0 -12 -4.5 -22.5t-10.5 -20.5q-98 -111 -231 -171.5t-287 -60.5q-143 0 -268 53.5t-217 145.5t-145.5 215t-53.5 262z" />
<glyph unicode="D" horiz-adv-x="1187" d="M68 66v1169q0 29 17 47t46 18h342q141 0 262 -51t210 -139t139.5 -207t50.5 -254q0 -147 -55.5 -267t-150.5 -205t-221 -131t-268 -46h-309q-29 0 -46 18.5t-17 47.5zM199 131h247q119 0 220.5 39t175 107.5t115.5 164t42 207.5q0 115 -43 211t-117.5 165t-176 106.5 t-216.5 37.5h-247v-1038z" />
<glyph unicode="E" horiz-adv-x="866" d="M68 66v1169q0 29 17 47t46 18h643q29 0 47.5 -18t18.5 -47q0 -27 -18.5 -46.5t-47.5 -19.5h-575v-383h542q29 0 47.5 -19t18.5 -48q0 -27 -18.5 -47.5t-47.5 -20.5h-542v-520h571q27 0 46.5 -18.5t19.5 -46.5q0 -29 -19.5 -47.5t-46.5 -18.5h-639q-29 0 -46 18.5 t-17 47.5z" />
<glyph unicode="F" horiz-adv-x="743" d="M68 66v1169q0 29 17 47t46 18h547q27 0 45 -18t18 -47q0 -27 -18 -46.5t-45 -19.5h-479v-393h438q25 0 45 -18.5t20 -48.5q0 -27 -20 -45.5t-45 -18.5h-438v-579q0 -66 -68 -66q-63 0 -63 66z" />
<glyph unicode="G" horiz-adv-x="1458" d="M51 643q0 139 53.5 264t145.5 220.5t217 150.5t268 55q141 0 265 -38t223 -132q18 -16 18 -47q0 -29 -19.5 -48t-45.5 -19q-33 0 -52 24q-74 72 -179 99.5t-210 27.5q-117 0 -218 -46t-175 -123t-117 -177t-43 -211q0 -115 45 -214t121 -172t176.5 -115t210.5 -42 q100 0 191.5 25t163 75t119.5 125.5t65 178.5h-565q-72 0 -72 65q0 66 72 66h706q0 -158 -50 -282t-140 -210t-215 -131t-275 -45q-143 0 -268 53.5t-217 145.5t-145.5 215t-53.5 262z" />
<glyph unicode="H" horiz-adv-x="1073" d="M68 61v1170q0 69 67 69h2q61 0 62 -69v-483h673v483q0 69 70 69h2q59 0 60 -69v-1170q0 -61 -62 -61q-70 0 -70 61v553h-673v-553q0 -61 -64 -61q-68 0 -67 61z" />
<glyph unicode="I" horiz-adv-x="663" d="M14 68q0 63 70 63h186v1038h-186q-70 0 -70 68q0 63 70 63h498q67 0 67 -63q0 -68 -67 -68h-181v-1038h181q67 0 67 -63q0 -68 -67 -68h-498q-70 0 -70 68z" />
<glyph unicode="J" horiz-adv-x="827" d="M6 342q0 68 68 68q61 0 61 -68q0 -51 19.5 -95t53.5 -77t79 -51.5t94 -18.5q51 0 95 18.5t78 51.5t53.5 77t19.5 95v885q0 73 63 73h2q66 0 66 -73v-885q0 -78 -30 -145.5t-81 -117.5t-119.5 -80t-146.5 -30q-80 0 -148.5 30t-119 80t-79 117.5t-28.5 145.5z" />
<glyph unicode="K" horiz-adv-x="882" d="M68 61v1170q0 69 67 69h2q61 0 62 -69v-412l469 465q23 16 41 16q29 0 45 -19t16 -42q0 -10 -3 -21.5t-13 -21.5l-498 -479l586 -606q23 -23 22 -50q0 -25 -21.5 -43t-47.5 -18q-25 0 -45 20l-551 584v-543q0 -61 -64 -61q-68 0 -67 61z" />
<glyph unicode="L" horiz-adv-x="718" d="M68 66v1169q0 65 61 65h2q68 0 68 -67v-1102h452q29 0 48.5 -18.5t19.5 -46.5q0 -29 -19.5 -47.5t-48.5 -18.5h-520q-29 0 -46 18.5t-17 47.5z" />
<glyph unicode="M" horiz-adv-x="1388" d="M68 70v1140q0 90 84 90q31 0 49 -14t32 -43l457 -1012l459 1012q12 29 33.5 43t74.5 14q63 0 64 -94v-1136q0 -70 -64 -70q-66 0 -65 70v966l-453 -993q-18 -43 -49 -43q-23 0 -33 10t-20 33l-442 989v-962q0 -70 -64 -70q-63 0 -63 70z" />
<glyph unicode="N" horiz-adv-x="1167" d="M68 68v1171q0 29 18 45t45 16q25 0 49 -24l787 -1057v1018q0 63 63 63q70 0 70 -63v-1149q0 -45 -26.5 -66.5t-57.5 -21.5q-33 0 -58 33l-755 1007v-972q0 -68 -70 -68q-66 0 -65 68z" />
<glyph unicode="O" horiz-adv-x="1474" d="M51 643q0 139 52.5 264t143.5 220.5t214 150.5t266 55q147 0 274 -54t220.5 -147.5t146.5 -217t53 -265.5q0 -141 -53 -266t-145.5 -217t-217 -145.5t-268.5 -53.5q-141 0 -266 53.5t-218 144.5t-147.5 214t-54.5 264zM188 643q0 -115 42 -214t116 -174t174.5 -118 t214.5 -43q117 0 217.5 43t174 119t116.5 176t43 217q0 113 -43 214.5t-118.5 177t-176 119.5t-213.5 44q-117 0 -217 -45t-173 -121.5t-115 -179t-42 -215.5z" />
<glyph unicode="P" horiz-adv-x="870" d="M68 68v1142q0 90 90 90h323q76 0 145.5 -29.5t121 -80.5t82 -120t30.5 -146q0 -78 -30.5 -146.5t-82 -121t-121 -82t-145.5 -29.5h-282v-477q0 -68 -66 -68t-65 68zM199 678h284q51 0 96.5 19.5t78 53t52 78.5t19.5 97q0 49 -19.5 94t-52 77.5t-77.5 52t-97 19.5h-284 v-491z" />
<glyph unicode="Q" horiz-adv-x="1474" d="M51 643q0 139 52.5 264t143.5 220.5t214 150.5t266 55q147 0 274 -54t220.5 -147.5t146.5 -217t53 -265.5q0 -141 -51 -264t-145 -215l118 -119q23 -23 23 -45q0 -27 -22.5 -49.5t-45.5 -22.5t-45 23l-129 127q-86 -55 -181 -86t-206 -31q-141 0 -266 53.5t-218 144.5 t-147.5 214t-54.5 264zM188 643q0 -115 42 -214t116 -174t174.5 -118t214.5 -43q82 0 156 22.5t139 63.5l-125 123q-27 27 -26 51q0 23 22.5 46.5t44.5 23.5q27 0 53 -27l131 -133q72 78 114 175.5t42 209.5q0 113 -43 214.5t-118.5 177t-176 119.5t-213.5 44 q-117 0 -217 -45t-173 -121.5t-115 -179t-42 -215.5z" />
<glyph unicode="R" horiz-adv-x="915" d="M68 68v1142q0 90 90 90h323q76 0 145.5 -29.5t121 -80.5t82 -120t30.5 -146q0 -66 -21.5 -125.5t-60.5 -107.5t-90 -83t-108 -49l237 -465q6 -16 6 -33q0 -29 -21.5 -45t-47.5 -16q-37 0 -52 31l-262 514h-241v-477q0 -68 -66 -68t-65 68zM199 678h284q51 0 96.5 19.5 t78 53t52 78.5t19.5 97q0 49 -19.5 94t-52 77.5t-77.5 52t-97 19.5h-284v-491z" />
<glyph unicode="S" horiz-adv-x="866" d="M43 287q0 33 20.5 50t45.5 17q16 0 37.5 -12t25.5 -37q8 -49 33.5 -86t62.5 -61.5t81 -38t91 -13.5t91 14.5t78 43.5t54.5 72t20.5 102q0 80 -31.5 131t-82 89t-111 67.5t-115.5 64.5q-43 27 -83 62.5t-70.5 80t-48 93.5t-17.5 104q0 76 27.5 132.5t72.5 94t101.5 57 t113.5 19.5t113.5 -19.5t101.5 -55t73 -85t28 -108.5q0 -29 -19.5 -49.5t-48.5 -20.5q-23 0 -40 14.5t-21 47.5q-2 37 -19.5 63.5t-44 45t-59.5 27.5t-64 9q-92 0 -137 -51t-45 -121q0 -63 28.5 -108t71.5 -79t94.5 -59.5t96.5 -50.5q57 -31 106.5 -73t86 -92t57 -107.5 t20.5 -120.5q0 -92 -33.5 -160.5t-88 -114t-122 -68t-135.5 -22.5q-84 0 -155.5 28t-126 72t-85 100t-30.5 112z" />
<glyph unicode="T" horiz-adv-x="817" d="M14 1237q0 63 70 63h651q68 0 68 -65q0 -66 -68 -66h-262v-1101q0 -68 -65 -68q-66 0 -66 68v1101h-258q-70 0 -70 68z" />
<glyph unicode="U" horiz-adv-x="1032" d="M68 457v770q0 73 61 73h2q68 0 68 -73v-770q0 -160 81.5 -261.5t241.5 -101.5q86 0 145.5 26.5t96.5 75t53.5 115t16.5 146.5v770q0 73 65 73h2q61 0 62 -73v-770q0 -106 -29 -195.5t-84 -155t-136 -102.5t-186 -37q-104 0 -189 37t-145.5 102.5t-93 154.5t-32.5 196z " />
<glyph unicode="V" horiz-adv-x="1206" d="M25 1237q0 27 19 45t46 18q43 0 66 -47l444 -1040l457 1044q10 25 25.5 34t35.5 9q27 0 44.5 -16t17.5 -45q0 -18 -9 -33l-503 -1155q-10 -20 -27.5 -35.5t-40.5 -15.5q-41 0 -63 53l-498 1139q-14 20 -14 45z" />
<glyph unicode="W" horiz-adv-x="1617" d="M14 1239q0 29 20.5 45t47.5 16q39 0 61 -43l314 -1103l266 1069q10 39 28.5 58t55.5 19q29 0 54.5 -19t35.5 -58l264 -1069l316 1103q6 23 23.5 33t35.5 10q27 0 47.5 -16t20.5 -45q0 -4 -5 -25l-342 -1144q-10 -35 -37.5 -52.5t-58.5 -17.5q-27 0 -54.5 17.5t-39.5 52.5 l-260 1013l-258 -1013q-10 -35 -37 -52.5t-55 -17.5q-33 0 -59.5 17.5t-37.5 52.5l-342 1144q-2 10 -3 16.5t-1 8.5z" />
<glyph unicode="X" horiz-adv-x="866" d="M45 63q0 25 8 39l305 588l-264 518q-8 14 -8 31q0 31 21.5 46t48.5 15q39 0 57 -34l219 -432l219 432q22 34 56 34h2q29 0 49 -15t20 -46q0 -16 -8 -31l-264 -506l303 -600q12 -18 12 -39q0 -29 -20.5 -46t-44.5 -17q-31 0 -41 10t-21 33l-262 512l-260 -512 q-23 -43 -61 -43q-25 0 -45.5 17.5t-20.5 45.5z" />
<glyph unicode="Y" horiz-adv-x="903" d="M14 1227q0 31 21.5 52t48.5 21q31 0 49 -30l316 -592l315 590q8 16 23.5 24t31.5 8q27 0 49.5 -17t22.5 -46q0 -10 -3 -16.5t-7 -16.5l-369 -647v-487q0 -70 -59 -70q-68 0 -68 70v487l-362 635q-8 14 -9 35z" />
<glyph unicode="Z" horiz-adv-x="880" d="M47 70q0 25 14 51l551 1048h-481q-74 0 -74 66q0 65 72 65h2h588q33 0 48 -17t15 -44q0 -10 -3 -17.5l-7 -17.5l-559 -1073h557q74 0 74 -65q0 -66 -74 -66h-639q-84 0 -84 70z" />
<glyph unicode="[" horiz-adv-x="421" d="M78 -287v1557q0 29 18.5 46t46.5 17h195q27 0 46 -17.5t19 -45.5q0 -29 -19 -48.5t-46 -19.5h-129v-1419h125q27 0 46 -20.5t19 -49.5q0 -27 -19.5 -46t-45.5 -19h-191q-29 0 -47 19.5t-18 45.5z" />
<glyph unicode="\" horiz-adv-x="632" d="M8 1252.5v11.5q0 31 20.5 46t47.5 15q16 0 31.5 -8t23.5 -31l485 -1427q6 -12 7 -25q0 -29 -19.5 -45t-44.5 -16q-45 0 -65 49l-484 1417q-2 6 -2 13.5z" />
<glyph unicode="]" horiz-adv-x="423" d="M16 1270q0 29 19.5 46t46.5 17h197q27 0 45 -17.5t18 -45.5v-1557q0 -27 -18.5 -46t-44.5 -19h-193q-27 0 -46.5 19.5t-19.5 45.5q0 29 19.5 49.5t46.5 20.5h127v1419h-131q-27 0 -46.5 19.5t-19.5 48.5z" />
<glyph unicode="^" horiz-adv-x="714" d="M35 670q0 6 6 28l242 555q10 25 30.5 36t44.5 11q25 0 46.5 -11t31.5 -36l236 -551q8 -14 8 -26q0 -29 -22.5 -46.5t-47.5 -17.5q-35 0 -47 33l-205 490l-202 -488q-6 -16 -22.5 -25.5t-33.5 -9.5q-25 0 -45 15.5t-20 42.5z" />
<glyph unicode="_" horiz-adv-x="1056" d="M74 -182q0 63 73 63h768q66 0 66 -65q0 -68 -66 -68h-768q-74 0 -73 70z" />
<glyph unicode="`" horiz-adv-x="395" d="M25 1145q0 31 22.5 54.5t52.5 23.5q27 0 47 -15l195 -147q27 -20 27 -47q0 -20 -16.5 -35.5t-37.5 -15.5q-6 0 -13 1t-15 5l-219 114q-43 20 -43 62z" />
<glyph unicode="a" horiz-adv-x="1003" d="M51 440q0 98 34 182.5t93.5 146.5t140 97t175.5 35q49 0 97 -12t91 -35t77 -55.5t52 -73.5v102q0 29 18.5 47.5t47.5 18.5q27 0 43 -18.5t18 -47.5v-784q0 -27 -19.5 -47.5t-46.5 -20.5q-29 0 -45 20.5t-16 47.5v117q-20 -41 -54 -74t-77 -56.5t-90 -35.5t-96 -12 q-94 0 -175 35.5t-140.5 97t-93.5 145.5t-34 180zM178 440q0 -68 23.5 -129t65.5 -106t100.5 -72t126.5 -27q70 0 128 27t100 72t65.5 106.5t23.5 128.5q0 68 -23.5 129.5t-65.5 107.5t-100 72.5t-128 26.5q-68 0 -126.5 -26.5t-100.5 -72.5t-65.5 -107.5t-23.5 -129.5z" />
<glyph unicode="b" horiz-adv-x="1013" d="M76 43v1217q0 29 17.5 47t45.5 18q27 0 44.5 -18.5t17.5 -46.5v-535q47 74 133 125t182 51t178 -35t141.5 -97t93.5 -146t34 -183q0 -96 -34 -180t-93.5 -145.5t-141.5 -97t-178 -35.5q-49 0 -96 12t-89 35.5t-76 56.5t-54 74v-117q0 -27 -15.5 -47.5t-46.5 -20.5 q-35 0 -49 20.5t-14 47.5zM201 440q0 -68 23.5 -129t65.5 -106t100.5 -72t125.5 -27q70 0 128 27t100 72t66 106.5t24 128.5q0 68 -24 129.5t-66 107.5t-100 72.5t-128 26.5q-68 0 -126 -26.5t-100 -72.5t-65.5 -107.5t-23.5 -129.5z" />
<glyph unicode="c" horiz-adv-x="931" d="M51 440q0 98 36 182.5t98.5 146.5t146.5 97t180 35q92 0 167 -29.5t140 -83.5q16 -14 26.5 -26t10.5 -35q0 -27 -19.5 -45t-48.5 -18q-23 0 -33 6t-26 22q-35 35 -93 59.5t-124 24.5q-68 0 -128 -26.5t-105.5 -72.5t-72 -107.5t-26.5 -129.5t26.5 -129t72 -106t105.5 -72 t128 -27q78 0 142.5 29t105.5 80q14 16 25.5 26.5t35.5 10.5q29 0 47.5 -18.5t18.5 -47.5q0 -16 -9.5 -28.5t-19.5 -26.5q-68 -68 -154 -108.5t-192 -40.5q-96 0 -180 35.5t-146.5 97t-98.5 145.5t-36 180z" />
<glyph unicode="d" d="M51 440q0 98 34 182.5t93.5 146.5t141 97t178.5 35q98 0 184 -51t131 -125v535q0 29 17.5 47t43.5 18q29 0 47.5 -18.5t18.5 -46.5v-1217q0 -27 -16.5 -47.5t-49.5 -20.5q-29 0 -45 20.5t-16 47.5v117q-20 -41 -55 -74t-77 -56.5t-90 -35.5t-93 -12q-96 0 -178 35.5 t-141.5 97t-93.5 145.5t-34 180zM180 440q0 -68 23.5 -129t65.5 -106t100.5 -72t128.5 -27q68 0 125 27t100 72t66.5 106.5t23.5 128.5q0 68 -23.5 129.5t-66.5 107.5t-100 72.5t-125 26.5q-70 0 -128.5 -26.5t-100.5 -72.5t-65.5 -107.5t-23.5 -129.5z" />
<glyph unicode="e" d="M51 440q0 98 36 182.5t97.5 146.5t145.5 97t180 35q86 0 164 -29.5t139 -83.5q23 -25 49.5 -59.5t49 -71t37 -75.5t14.5 -72q0 -27 -19.5 -46.5t-50.5 -19.5h-715v-4q0 -72 26.5 -133t73 -105t105.5 -70t127 -26q78 0 153.5 33t122.5 92q10 14 23.5 26.5t36.5 12.5 q27 0 46 -19.5t19 -47.5q-2 -16 -10 -33.5t-29 -38.5q-72 -74 -167 -111.5t-195 -37.5q-96 0 -180 35.5t-145.5 97t-97.5 145.5t-36 180zM201 561h620q-14 45 -45 84t-72.5 67.5t-92 46t-101.5 17.5q-53 0 -102.5 -16.5t-90.5 -46t-71.5 -68.5t-44.5 -84z" />
<glyph unicode="f" horiz-adv-x="632" d="M39 815q0 55 55 55h47v179q0 57 19.5 108t56.5 88t88 58.5t115 21.5q51 0 100 -15.5t88 -45t62.5 -71.5t23.5 -95q0 -29 -17.5 -47.5t-47.5 -18.5q-23 0 -38.5 9.5t-21.5 31.5q-18 57 -57 92t-92 35q-31 0 -58.5 -12t-48 -33.5t-33 -49.5t-12.5 -56v-179h156q55 0 55 -55 t-55 -55h-156v-699q0 -61 -61 -61q-66 0 -66 61v699h-47q-55 0 -55 55z" />
<glyph unicode="g" d="M51 440q0 98 34 182.5t93.5 146.5t140 97t175.5 35q49 0 97 -12t91 -35t77 -55.5t52 -73.5v86q0 59 63 59q66 0 66 -59v-825q0 -96 -37 -179t-100.5 -145.5t-147.5 -98.5t-178 -36q-182 0 -309 121q-16 10 -30.5 27.5t-14.5 37.5q0 27 15.5 46.5t49.5 19.5q20 0 35 -13.5 t27 -23.5q47 -43 103.5 -66.5t123.5 -23.5q70 0 130.5 26.5t105.5 71.5t71.5 105.5t26.5 130.5v174q-20 -41 -54 -74t-77 -56.5t-90 -35.5t-96 -12q-94 0 -175 35.5t-140.5 97t-93.5 145.5t-34 180zM178 440q0 -68 23.5 -129t65.5 -106t100.5 -72t126.5 -27q70 0 128 27 t100 72t65.5 106.5t23.5 128.5q0 68 -23.5 129.5t-65.5 107.5t-100 72.5t-128 26.5q-68 0 -126.5 -26.5t-100.5 -72.5t-65.5 -107.5t-23.5 -129.5z" />
<glyph unicode="h" horiz-adv-x="944" d="M76 59v1207q0 59 61 59q66 0 66 -59v-535q33 78 105.5 124t166.5 46q186 0 294 -114.5t108 -319.5v-406q0 -61 -64 -61q-61 0 -61 61v441q0 55 -22.5 105t-60.5 87t-88.5 59.5t-105.5 22.5q-59 0 -108.5 -22.5t-86 -59.5t-57 -87t-20.5 -105v-443q0 -59 -66 -59 q-61 0 -61 59z" />
<glyph unicode="i" horiz-adv-x="268" d="M59 1143q0 37 22.5 60.5t61.5 23.5q29 0 55.5 -23.5t26.5 -60.5q0 -41 -26.5 -63.5t-55.5 -22.5q-39 0 -61.5 22.5t-22.5 63.5zM76 59v746q0 65 59 65h2q66 0 66 -65v-746q0 -59 -64 -59q-63 0 -63 59z" />
<glyph unicode="j" horiz-adv-x="286" d="M-352 -236q0 27 21.5 42.5t43.5 15.5q18 0 36 -8.5t24 -30.5q16 -57 55 -93t94 -36q63 0 108.5 46t45.5 103v1004q0 63 61 63q63 0 64 -63v-1004q0 -57 -19.5 -107t-56.5 -88t-88 -59.5t-115 -21.5q-51 0 -100 17.5t-88 49t-62.5 74.5t-23.5 96zM53 1143q0 37 24.5 60.5 t61.5 23.5q31 0 56.5 -23.5t25.5 -60.5q0 -41 -25.5 -63.5t-56.5 -22.5q-37 0 -61.5 22.5t-24.5 63.5z" />
<glyph unicode="k" horiz-adv-x="735" d="M76 63v1194q0 68 63 68t64 -68v-710l381 309q20 14 45 14q27 0 46 -18t19 -45q0 -29 -26 -43l-381 -293l415 -358q23 -23 23 -50t-18.5 -45t-42.5 -18q-23 0 -39 16l-422 375v-328q0 -63 -64 -63q-63 0 -63 63z" />
<glyph unicode="l" horiz-adv-x="268" d="M76 59v1201q0 65 57 65h2q68 0 68 -65v-1201q0 -59 -66 -59q-61 0 -61 59z" />
<glyph unicode="m" horiz-adv-x="1406" d="M76 55v752q0 63 61 63q63 0 64 -63v-39q66 133 223 133q104 0 181 -40t120 -126q18 37 50 68t69 52.5t75.5 33.5t71.5 12q160 0 255 -97t95 -284v-465q0 -55 -67 -55q-61 0 -62 55v498q0 47 -17 88t-47 70.5t-71 47t-86 17.5t-85 -17.5t-70.5 -48t-48 -71.5t-17.5 -86 v-498q0 -55 -63 -55t-64 55v498q0 47 -17.5 88t-46 70.5t-69.5 47t-86 17.5q-47 0 -88 -17.5t-70.5 -47t-47 -70.5t-17.5 -88v-498q0 -55 -62 -55q-63 0 -63 55z" />
<glyph unicode="n" horiz-adv-x="944" d="M76 59v748q0 63 61 63q66 0 66 -63v-76q33 78 105.5 124t166.5 46q186 0 294 -114.5t108 -319.5v-406q0 -61 -64 -61q-61 0 -61 61v441q0 55 -22.5 105t-60.5 87t-88.5 59.5t-105.5 22.5q-59 0 -108.5 -22.5t-86 -59.5t-57 -87t-20.5 -105v-443q0 -59 -66 -59 q-61 0 -61 59z" />
<glyph unicode="o" horiz-adv-x="1024" d="M51 440q0 98 36 182.5t97.5 146.5t145.5 97t180 35q94 0 179 -35t147.5 -97t99.5 -146t37 -183q0 -96 -37 -180t-99.5 -145.5t-147.5 -97t-179 -35.5q-96 0 -180 35.5t-145.5 97t-97.5 145.5t-36 180zM178 440q0 -68 25.5 -129t70.5 -106t105.5 -72t130.5 -27t131 27 t106.5 72t72 106.5t26.5 128.5q0 70 -26.5 130.5t-72 106.5t-106.5 72.5t-131 26.5t-130.5 -26.5t-105.5 -72.5t-70.5 -106.5t-25.5 -130.5z" />
<glyph unicode="p" horiz-adv-x="1013" d="M76 -403v1208q0 65 59 65h2q63 0 64 -65v-94q23 37 56.5 69.5t75.5 58t89 40t94 14.5q96 0 178 -37t141.5 -99.5t93.5 -147.5t34 -181q0 -94 -34 -178t-93.5 -146.5t-141.5 -99.5t-178 -37q-47 0 -95 13.5t-90 38t-76 57.5t-54 71v-550q0 -70 -64 -70q-61 0 -61 70z M201 428q0 -68 23.5 -128t65.5 -106.5t100.5 -73t125.5 -26.5q70 0 128 26.5t100 73t66 106.5t24 128q0 70 -24 130t-66 106.5t-100 73t-128 26.5q-68 0 -126 -26.5t-100 -73t-65.5 -106.5t-23.5 -130z" />
<glyph unicode="q" d="M51 428q0 96 34 181t94.5 147.5t142 99.5t178.5 37q98 0 183 -54.5t132 -127.5v94q0 65 62 65h2q63 0 63 -65v-1208q0 -70 -63 -70t-64 70v550q-20 -39 -54 -71.5t-76 -57t-90 -38t-95 -13.5q-96 0 -178 36t-142.5 99.5t-94.5 146.5t-34 179zM180 428q0 -68 23.5 -128 t66.5 -106.5t101.5 -73t128.5 -26.5t127 26.5t99 73t65.5 106.5t23.5 128q0 70 -23.5 130t-65.5 106.5t-99 73t-127 26.5t-128.5 -26.5t-101.5 -73t-66.5 -106.5t-23.5 -130z" />
<glyph unicode="r" horiz-adv-x="679" d="M76 63v742q0 65 59 65h2q63 0 64 -65v-55q25 68 93 109.5t144 41.5q33 0 76 -10t81 -27.5t64.5 -42t26.5 -53.5t-19.5 -50.5t-48.5 -21.5q-20 0 -36.5 15.5t-32.5 25.5q-29 18 -55.5 28.5t-55.5 10.5q-53 0 -96 -19.5t-74.5 -51t-49 -74.5t-17.5 -92v-476q0 -63 -64 -63 q-61 0 -61 63z" />
<glyph unicode="s" horiz-adv-x="645" d="M43 188q0 31 21.5 46.5t48.5 15.5q18 0 33.5 -9.5t21.5 -29.5q10 -61 54 -89t97 -28t98.5 35t45.5 100q0 37 -14.5 65t-39 51.5t-57.5 43t-69 39.5q-78 43 -132.5 105.5t-54.5 150.5q0 61 20.5 103t54.5 69t76 38t83 11q39 0 79 -12t70.5 -37t51 -61.5t22.5 -85.5 q0 -31 -19.5 -46.5t-41.5 -15.5q-25 0 -43.5 14.5t-22.5 40.5q-6 35 -33.5 55.5t-58.5 20.5q-43 0 -77 -22.5t-34 -65.5q0 -37 15.5 -63.5t40 -48t56.5 -38t62 -30.5q84 -39 140.5 -116t56.5 -163q0 -66 -24.5 -114.5t-63.5 -80.5t-88 -48.5t-99 -16.5q-78 0 -149.5 37 t-108.5 117q-18 31 -18 63z" />
<glyph unicode="t" horiz-adv-x="509" d="M8 815q0 55 53 55h119v213q0 63 66 64q66 0 65 -64v-213h129q63 0 64 -55q0 -55 -64 -55h-129v-701q0 -59 -65 -59q-66 0 -66 59v701h-119q-53 0 -53 55z" />
<glyph unicode="u" horiz-adv-x="944" d="M76 406v399q0 65 59 65h2q66 0 66 -65v-434q0 -59 20.5 -109.5t57 -87.5t86 -58.5t108.5 -21.5q57 0 107.5 21.5t88.5 58.5t59.5 87t21.5 110v434q0 65 59 65h2q63 0 64 -65v-748q0 -57 -64 -57q-61 0 -61 57v86q-35 -80 -107 -128t-170 -48q-186 0 -292.5 117 t-106.5 322z" />
<glyph unicode="v" horiz-adv-x="831" d="M14 805q0 29 21.5 47t46.5 18q31 0 49 -32l281 -674l282 670q6 20 22.5 28t33.5 8q23 0 45 -15t22 -42q0 -6 -3 -11t-7 -16l-315 -737q-12 -27 -35 -38t-45 -11q-53 0 -74 49l-318 731q-6 18 -6 25z" />
<glyph unicode="w" horiz-adv-x="1325" d="M49 803q0 31 22.5 49t49.5 18q20 0 37.5 -10t21.5 -33l205 -647l199 637q10 29 27.5 41t52.5 12q57 0 75 -53l203 -637l203 647q12 43 59 43q27 0 48.5 -18t21.5 -47q0 -6 -1 -14.5t-1 -16.5l-266 -739q-8 -16 -29 -25.5t-33 -9.5q-23 0 -41 9t-24 26l-215 670l-220 -670 q-4 -16 -23.5 -25.5t-37.5 -9.5q-45 0 -64 35l-264 739q-6 14 -6 29z" />
<glyph unicode="x" horiz-adv-x="706" d="M43 61q0 23 12 45l228 343l-205 321q-10 31 -10 35q0 29 19 47t44 18q35 0 55 -32l168 -269l166 269q20 33 51 32q27 0 46.5 -18t19.5 -47q0 -20 -8 -35l-203 -311l223 -353q16 -23 17 -45q0 -29 -20.5 -45t-45.5 -16q-35 0 -57 35l-189 307l-190 -307 q-12 -20 -27.5 -27.5t-32.5 -7.5q-23 0 -42 16.5t-19 44.5z" />
<glyph unicode="y" horiz-adv-x="833" d="M14 805q0 29 20.5 47t45.5 18q35 0 49 -32l295 -633l278 629q14 36 50 36h2q27 0 46 -17t19 -46q0 -14 -8 -29l-555 -1218q-8 -16 -23.5 -24.5t-29.5 -8.5q-25 0 -42.5 15.5t-17.5 43.5q0 6 1 15.5t3 19.5l203 453l-330 702q-6 18 -6 29z" />
<glyph unicode="z" horiz-adv-x="790" d="M90 129l414 616h-363q-71 0 -71 60v2q0 63 71 63h484q31 0 45 -17t14 -38q-2 -10 -5 -21.5t-11 -25.5l-435 -641h435q67 0 67 -64v-2q0 -61 -67 -61h-521q-81 0 -81 61q0 33 24 68z" />
<glyph unicode="{" horiz-adv-x="667" d="M12 451q0 20 12.5 42.5t41.5 30.5q51 14 82.5 44t49 73t23.5 99.5t6 123.5q0 94 6.5 174t39 138.5t98 91t186.5 32.5q33 0 49.5 -21.5t16.5 -43.5q0 -27 -16.5 -46.5t-49.5 -19.5q-70 0 -109.5 -16t-59 -47t-25 -77t-5.5 -105v-74q0 -135 -28.5 -234.5t-122.5 -164.5 q94 -70 122.5 -166.5t28.5 -233.5v-74q0 -59 5.5 -105t25 -77t59 -47t109.5 -16q41 0 58.5 -20.5t17.5 -45.5q0 -27 -17.5 -46t-58.5 -19q-121 0 -186.5 32.5t-98 91t-39 138.5t-6.5 176q0 70 -5 128t-22.5 102t-49 72t-84.5 36q-27 4 -40.5 26.5t-13.5 47.5z" />
<glyph unicode="|" horiz-adv-x="284" d="M78 -414v1674q0 66 59 65q66 0 66 -65v-1674q0 -59 -64 -59q-61 0 -61 59z" />
<glyph unicode="}" horiz-adv-x="667" d="M35 -334q0 25 18.5 45.5t57.5 20.5q70 0 109.5 16t59 47t23.5 77t4 105v74q0 137 30 233.5t122 166.5q-92 66 -122 165t-30 234v74q0 59 -4 105t-23.5 77t-59.5 47t-109 16q-35 0 -50.5 19.5t-15.5 46.5q0 23 15.5 44t50.5 21q119 0 185 -32.5t98 -91t39 -138.5t7 -174 q0 -66 6.5 -121t22.5 -99t48 -74.5t83 -45.5q29 -8 41 -28.5t12 -44.5q0 -25 -13 -47.5t-40 -26.5q-53 -8 -85 -36t-48 -72t-21.5 -102t-5.5 -128q0 -96 -7 -176t-39 -138.5t-98.5 -91t-184.5 -32.5q-39 0 -57.5 19.5t-18.5 45.5z" />
<glyph unicode="~" horiz-adv-x="833" d="M61 440q0 31 19.5 55.5t50.5 42t71 26.5t81 9q45 0 81.5 -11t67.5 -25.5t57.5 -25.5t53.5 -11q31 0 64.5 17.5t70.5 45.5q16 10 37 10q23 0 38 -15t15 -36q0 -31 -18.5 -57.5t-49 -45t-71.5 -28.5t-86 -10q-43 0 -79 12.5t-67.5 25.5t-60.5 25.5t-55 12.5 q-35 0 -63 -14.5t-71 -45.5q-4 -6 -15 -9t-17 -3q-25 0 -39.5 15.5t-14.5 39.5z" />
<glyph unicode="&#xa1;" horiz-adv-x="262" d="M43 1212q0 37 25.5 61.5t60.5 24.5t59.5 -24.5t24.5 -61.5q0 -39 -24.5 -63.5t-59.5 -24.5t-60.5 25t-25.5 63zM63 59v846q0 57 68 58q63 0 64 -58v-846q0 -68 -64 -67q-68 0 -68 67z" />
<glyph unicode="&#xa2;" horiz-adv-x="929" d="M35 463q0 90 31.5 171t86 145.5t128 107.5t159.5 57v74q0 55 66 55q63 0 63 -55v-72q74 -4 140.5 -33.5t124.5 -78.5q14 -10 25 -24.5t11 -33.5q0 -27 -19.5 -47t-45.5 -20q-23 0 -39 16q-80 74 -197 96v-712q143 20 230 129q14 18 37 18q29 0 49 -19.5t20 -48.5 q0 -14 -12 -32q-49 -72 -137 -117t-187 -55v-70q0 -61 -65 -61q-63 0 -64 61v72q-86 14 -159.5 56t-128 104.5t-86 143.5t-31.5 173zM162 463q0 -63 20.5 -121.5t57 -105t88 -79t112.5 -44.5v704q-61 -14 -112.5 -47t-88 -79t-57 -104.5t-20.5 -123.5z" />
<glyph unicode="&#xa3;" horiz-adv-x="1095" d="M41 156q0 92 54.5 146t158.5 54q70 0 135 -41q0 16 1 34t1 34q0 43 -4 83t-14 85h-105q-70 0 -69 63q0 68 69 68h68q-33 98 -59.5 186t-26.5 174q0 61 27.5 114.5t73.5 92.5t104.5 61.5t122.5 22.5q119 0 189.5 -58t102.5 -157q6 -6 7 -28q0 -31 -21.5 -48.5t-46.5 -17.5 q-16 0 -32.5 9t-22.5 32q-41 135 -172 135q-86 0 -143.5 -42t-57.5 -128q0 -33 8 -76t21.5 -90t30 -94t32.5 -88h203q76 0 76 -68q0 -63 -76 -63h-170q20 -80 20 -178q0 -39 -3 -74t-13 -72q72 -63 128 -95t103 -32q63 0 114.5 36t72.5 116q12 49 59 49q25 0 45.5 -19.5 t20.5 -50.5q0 -55 -24.5 -103t-64.5 -84t-88.5 -56.5t-97.5 -20.5q-98 0 -169.5 34t-143.5 93h-2q-33 -61 -84 -94t-137 -33q-37 0 -74 12.5t-64.5 36t-45 58.5t-17.5 82zM174 156q0 -25 21.5 -40.5t46.5 -15.5q47 0 73.5 22.5t40.5 57.5q-51 45 -102 45q-31 0 -55.5 -14 t-24.5 -55z" />
<glyph unicode="&#xa5;" horiz-adv-x="954" d="M35 301q0 51 69 51h308v170h-308q-70 0 -69 56q0 55 69 55h269l-324 559q-8 14 -8 35q0 31 22.5 52t49.5 21q10 -8 24.5 -11t24.5 -19l313 -592l313 590q10 16 28 21t28 11q27 0 49 -17t22 -46q0 -10 -2 -16.5t-6 -16.5l-325 -571h270q68 0 68 -58q0 -53 -68 -53h-313 v-170h313q68 0 68 -53q0 -55 -68 -55h-313v-174q0 -70 -62 -70q-66 0 -65 70v174h-308q-70 0 -69 57z" />
<glyph unicode="&#xa6;" horiz-adv-x="284" d="M78 166q0 68 59 67q66 0 66 -67v-580q0 -59 -64 -59q-61 0 -61 59v580zM78 702v558q0 66 59 65q66 0 66 -65v-558q0 -61 -64 -61q-61 0 -61 61z" />
<glyph unicode="&#xa7;" horiz-adv-x="598" d="M49 109q0 25 17.5 40t37.5 15t43 -23q25 -35 54.5 -54t83.5 -19q53 0 83.5 30.5t30.5 81.5q0 39 -20.5 74t-50 63.5t-62.5 54t-57 48.5q-63 33 -108.5 89t-45.5 136q0 49 14.5 91t39 74t58.5 51.5t75 21.5q-80 51 -116 111.5t-36 123.5q0 104 65.5 163.5t157.5 59.5 q143 0 226 -118q4 -8 5 -14.5t1 -12.5q0 -23 -16.5 -40t-39.5 -17q-25 0 -43 22q-25 33 -52 52.5t-79 19.5q-53 0 -84.5 -29.5t-31.5 -70.5t17 -78t45 -69t61.5 -59.5t64.5 -49.5q66 -29 109 -84.5t43 -141.5q0 -47 -17.5 -89t-45 -74.5t-63.5 -52t-73 -21.5 q88 -45 127 -106.5t39 -127.5q0 -49 -18.5 -89t-49 -69.5t-71.5 -45t-86 -15.5q-78 0 -131.5 31t-94.5 90q-6 8 -6 27zM150 649q0 -59 44 -101t107 -42q55 0 97 39t42 104q0 57 -41 99.5t-102 42.5q-59 0 -103 -41.5t-44 -100.5z" />
<glyph unicode="&#xa8;" horiz-adv-x="741" d="M70 1051q0 37 23.5 62.5t58.5 25.5t60.5 -26t25.5 -62q0 -39 -26 -63.5t-60 -24.5q-35 0 -58.5 24.5t-23.5 63.5zM506 1051q0 37 23.5 62.5t58.5 25.5t59.5 -26t24.5 -62q0 -39 -24.5 -63.5t-59.5 -24.5t-58.5 24.5t-23.5 63.5z" />
<glyph unicode="&#xa9;" horiz-adv-x="1474" d="M51 643q0 139 52.5 264t143.5 220.5t214 150.5t266 55q147 0 274 -54t220.5 -147.5t146.5 -217t53 -265.5q0 -141 -53 -266t-145.5 -217t-217 -145.5t-268.5 -53.5q-141 0 -266 53.5t-218 144.5t-147.5 214t-54.5 264zM168 643q0 -117 45 -220.5t122 -180t180 -120.5 t220 -44q119 0 223.5 45t181.5 122t121 181t44 223q0 117 -45.5 221.5t-122 183.5t-181 124t-221.5 45q-121 0 -224 -47.5t-179 -127t-120 -184t-44 -221.5zM319 649q0 90 33 169t90.5 136.5t135 90t167.5 32.5q45 0 99.5 -13t102.5 -35.5t81 -51.5t33 -62q0 -25 -18.5 -42 t-41.5 -17q-18 0 -31.5 7t-25.5 18q-29 35 -84 58.5t-115 23.5q-66 0 -121 -25t-97 -68t-65.5 -100t-23.5 -121q0 -63 23.5 -119.5t65.5 -97.5t97.5 -65.5t120.5 -24.5q66 0 127.5 24.5t102.5 73.5q14 16 22.5 25.5t32.5 9.5q25 0 43.5 -16.5t18.5 -44.5q0 -14 -8.5 -25.5 t-18.5 -21.5q-63 -66 -142 -104t-178 -38q-90 0 -167.5 33t-135 90.5t-90.5 134t-33 166.5z" />
<glyph unicode="&#xaa;" horiz-adv-x="684" d="M51 1022q0 55 20.5 105.5t57.5 88t87 60t110 22.5q78 0 126 -37.5t68 -80.5v77q0 41 43 41t43 -41v-464q0 -43 -43 -43t-43 43v65q-25 -47 -72 -78.5t-118 -31.5q-57 0 -107.5 20t-88.5 57t-60.5 87.5t-22.5 109.5zM141 1022q0 -80 53.5 -134t135.5 -54q78 0 134 53 t56 137q0 80 -55 135t-135 55q-84 0 -136.5 -57t-52.5 -135z" />
<glyph unicode="&#xab;" horiz-adv-x="745" d="M33 483l239 480q16 35 52 34q23 0 40 -16t17 -43q0 -18 -8 -33l-209 -422l209 -426q8 -14 8 -24q0 -27 -21.5 -43.5t-44.5 -16.5q-31 0 -43 27zM326 483l241 480q16 35 49 34q23 0 40.5 -16t17.5 -43q0 -8 -2 -15.5t-4 -17.5l-211 -422l211 -426l4 -12t2 -12 q0 -27 -21.5 -43.5t-44.5 -16.5q-10 0 -23.5 6.5t-17.5 20.5z" />
<glyph unicode="&#xad;" horiz-adv-x="694" d="M78 442q0 66 69 66h404q63 0 63 -68q0 -66 -63 -65h-404q-70 0 -69 67z" />
<glyph unicode="&#xae;" horiz-adv-x="1210" d="M66 795q0 111 40.5 209t112.5 172.5t169 118.5t210 44q115 0 215 -43t174 -115.5t116 -171t42 -208.5q0 -111 -42 -208t-116 -171t-172 -116t-209 -42q-113 0 -211 41t-171.5 114t-115.5 169t-42 207zM174 795q0 -88 34 -166t91 -136.5t135 -92t168 -33.5t170 33.5 t138.5 92t92 137.5t33.5 171q0 88 -34.5 168t-93 139t-138.5 94t-168 35q-92 0 -170 -36t-135 -97.5t-90 -141t-33 -167.5zM434 569v465q0 66 64 66h133q76 0 127 -53.5t51 -126.5q0 -53 -28.5 -97.5t-78.5 -66.5l86 -162q4 -10 5.5 -15.5t1.5 -9.5q0 -25 -16.5 -39 t-39.5 -14q-31 0 -43 23l-98 198h-59v-168q0 -53 -52 -53q-53 0 -53 53zM539 846h92q31 0 51 21.5t20 52.5q0 33 -20 53t-51 20h-92v-147z" />
<glyph unicode="&#xb0;" horiz-adv-x="663" d="M53 1022q0 55 20.5 105.5t57.5 88t87.5 60t109.5 22.5t110 -21.5t89 -58t59.5 -87t21.5 -107.5t-21.5 -107.5t-59.5 -88t-88 -59t-107 -21.5q-59 0 -109.5 20t-88.5 57t-59.5 87.5t-21.5 109.5zM143 1022q0 -80 54.5 -134t132.5 -54q82 0 137 55t55 135q0 39 -14 74 t-41 60.5t-61.5 40.5t-75.5 15t-76 -15t-59.5 -42t-38 -61.5t-13.5 -73.5z" />
<glyph unicode="&#xb1;" horiz-adv-x="901" d="M8 193q0 66 72 65h745q68 0 68 -68q0 -66 -68 -65h-745q-72 0 -72 68zM8 805q0 66 72 65h305v304q0 74 68 73q63 0 63 -73v-304h311q66 0 66 -67q0 -68 -66 -68h-311v-309q0 -66 -65 -66q-66 0 -66 66v309h-305q-72 0 -72 70z" />
<glyph unicode="&#xb2;" horiz-adv-x="456" d="M55 1147q0 23 11.5 49.5t32 49t51 37.5t69.5 15q80 0 122 -45t42 -108t-26.5 -108.5t-71.5 -92.5l-54 -57q-16 -18 -32.5 -29.5t-32.5 -21.5q31 8 86 8h90q23 0 35 -13.5t12 -29.5t-12 -28.5t-35 -12.5h-229q-23 0 -35 14t-12 33q0 23 14 37l133 149q47 53 65.5 84 t18.5 64t-25.5 53t-54.5 20q-33 0 -47 -17t-22.5 -37.5t-16.5 -38t-27 -17.5q-49 0 -49 43z" />
<glyph unicode="&#xb3;" horiz-adv-x="442" d="M39 881q0 16 13.5 31.5t29.5 15.5q25 0 37 -14.5t23.5 -33t26.5 -32.5t46 -14q39 0 66.5 25.5t27.5 60.5q0 37 -20.5 52t-45 22t-45 15.5t-20.5 32.5q0 25 16.5 34t36 16.5t36 18.5t16.5 42q0 27 -20.5 44t-47.5 17q-25 0 -39 -11t-24.5 -25.5t-18.5 -25.5t-20 -11 q-18 0 -34 12t-16 31q0 53 48.5 83.5t103.5 30.5q66 0 111 -34.5t45 -94.5q0 -51 -20.5 -79.5t-53.5 -38.5q41 -10 68.5 -43t27.5 -99q0 -72 -50 -115.5t-128 -43.5q-29 0 -60.5 9t-57 26.5t-42 42t-16.5 53.5z" />
<glyph unicode="&#xb4;" horiz-adv-x="395" d="M25 1014q0 29 24 47l197 147q20 14 45 15q35 0 56.5 -23.5t21.5 -54.5q0 -27 -10.5 -38t-32.5 -24l-220 -114q-10 -4 -16 -5t-12 -1q-23 0 -38 15t-15 36z" />
<glyph unicode="&#xb5;" horiz-adv-x="903" d="M78 -414v1221q0 63 63 63t64 -63v-436q0 -59 20.5 -109.5t57 -87.5t86 -58.5t108.5 -21.5q57 0 107.5 21.5t87.5 58.5t58.5 87t21.5 110v438q0 61 67 61q59 0 60 -61v-750q0 -59 -64 -59q-63 0 -63 59v82q-33 -80 -105 -127t-170 -47q-162 0 -272 99v-480q0 -59 -64 -59 q-63 0 -63 59z" />
<glyph unicode="&#xb6;" horiz-adv-x="892" d="M23 924q0 78 29.5 146.5t80.5 119.5t120 80.5t146 29.5h326q90 0 90 -90v-1142q0 -33 -14.5 -50.5t-48.5 -17.5q-59 0 -60 68v477h-108v-486q0 -59 -62 -59q-63 0 -63 59v486h-60q-78 0 -146.5 29.5t-119.5 82t-80.5 121t-29.5 146.5zM584 678h108v491h-108v-491z" />
<glyph unicode="&#xb7;" horiz-adv-x="403" d="M53 539q0 47 29 75.5t72 28.5q41 0 69.5 -28.5t28.5 -75.5q0 -45 -28.5 -73t-69.5 -28q-43 0 -72 28t-29 73z" />
<glyph unicode="&#xb8;" horiz-adv-x="428" d="M25 -283q0 10 10 21.5t24 11.5q23 0 47.5 -7t55.5 -7q66 0 101.5 15.5t35.5 39.5q0 20 -20.5 25.5t-44 9.5t-44 14t-20.5 39q0 2 1 4t1 4l16 117h80l-16 -106q57 0 96 -24t39 -71q0 -63 -55.5 -102t-147.5 -39q-68 0 -113.5 13.5t-45.5 41.5z" />
<glyph unicode="&#xb9;" horiz-adv-x="270" d="M-4 1069q0 14 8 23l123 174q8 14 27 14q37 0 36 -37v-438q0 -45 -43 -45q-45 0 -45 45v199q0 20 3.5 56t7.5 56l-47 -67q-10 -18 -29 -19q-16 0 -28.5 11.5t-12.5 27.5z" />
<glyph unicode="&#xba;" horiz-adv-x="663" d="M53 1022q0 55 20.5 105.5t57.5 88t87.5 60t109.5 22.5q57 0 108 -21.5t90 -58t60.5 -87t21.5 -107.5t-21.5 -107.5t-59.5 -88t-88 -59t-107 -21.5q-59 0 -109.5 20t-88.5 57t-59.5 87.5t-21.5 109.5zM143 1022q0 -80 54.5 -134t132.5 -54q82 0 137 55t55 135t-55 135 t-137 55q-41 0 -76 -15t-59.5 -42t-38 -61.5t-13.5 -73.5z" />
<glyph unicode="&#xbb;" horiz-adv-x="741" d="M70 33q0 16 8 24l209 426l-209 422q-8 14 -8 33q0 27 16 43t39 16q16 0 29.5 -7t23.5 -27l238 -480l-238 -483q-14 -27 -45 -27q-23 0 -43 16.5t-20 43.5zM362 33q0 16 9 24l209 426l-207 422q-10 31 -11 33q0 27 16.5 43t39.5 16q16 0 29.5 -7t23.5 -27l238 -480 l-238 -483q-14 -27 -43 -27q-25 0 -45.5 16.5t-20.5 43.5z" />
<glyph unicode="&#xbc;" horiz-adv-x="509" d="M4 649q0 16 8 29.5t29 13.5h438q18 0 26.5 -13t8.5 -30q0 -16 -8 -29.5t-27 -13.5h-438q-20 0 -28.5 13.5t-8.5 29.5zM90 215v270q0 43 43 43q45 0 45 -43v-239h121v239q0 20 9 31.5t34 11.5q43 0 43 -43v-239h31q39 0 39 -45q0 -41 -39 -41h-31v-115q0 -45 -43 -45 t-43 45v115h-158q-51 0 -51 55zM102 1069q0 14 9 23l122 174q8 14 27 14q14 0 25.5 -8t11.5 -29v-438q0 -45 -47 -45q-41 0 -41 45v199q0 20 2 56t4 56l-43 -67q-10 -18 -29 -19q-16 0 -28.5 11.5t-12.5 27.5z" />
<glyph unicode="&#xbd;" horiz-adv-x="509" d="M4 649q0 16 8 29.5t29 13.5h438q18 0 26.5 -13t8.5 -30q0 -16 -8 -29.5t-27 -13.5h-438q-20 0 -28.5 13.5t-8.5 29.5zM82 387q0 23 11 49.5t32.5 49t51.5 38t69 15.5q80 0 121 -44t41 -110q0 -61 -25 -108.5t-72 -94.5l-55 -55q-16 -16 -31.5 -28.5t-31.5 -20.5 q43 6 86 6h92q23 0 33 -12.5t10 -28.5t-10.5 -29.5t-32.5 -13.5h-234q-20 0 -32.5 14.5t-12.5 34.5q0 27 14 35l132 149q47 55 65.5 84t18.5 64q0 33 -25 53.5t-51 20.5q-33 0 -48.5 -17.5t-24.5 -38t-17.5 -38t-26.5 -17.5q-47 0 -47 43zM106 1069q0 12 7 23l123 174 q6 6 12 10t16 4q14 0 25.5 -8t11.5 -29v-438q0 -45 -47 -45q-41 0 -41 45v199q0 20 1 56t5 56l-43 -67q-12 -18 -29 -19q-16 0 -28.5 11.5t-12.5 27.5z" />
<glyph unicode="&#xbe;" horiz-adv-x="528" d="M4 649q0 16 8 29.5t29 13.5h438q18 0 26.5 -13t8.5 -30q0 -16 -8 -29.5t-27 -13.5h-438q-20 0 -28.5 13.5t-8.5 29.5zM74 881q0 16 13 31.5t30 15.5q25 0 37 -14.5t23 -33t26.5 -32.5t46.5 -14q39 0 65.5 25.5t26.5 60.5q0 37 -20.5 52t-44 22t-44 15.5t-20.5 32.5 q0 25 16.5 34t36 16.5t35.5 18.5t16 42q0 27 -20.5 44t-46.5 17q-27 0 -41 -11t-23.5 -25.5t-17.5 -25.5t-21 -11q-18 0 -33.5 12t-15.5 31q0 53 48.5 83.5t103.5 30.5q66 0 111 -34.5t45 -94.5q0 -51 -20.5 -79.5t-53.5 -38.5q41 -10 68.5 -43t27.5 -99q0 -72 -50 -115.5 t-128 -43.5q-29 0 -60.5 9t-57.5 26.5t-42 42t-16 53.5zM94 215v270q0 43 45 43q41 0 41 -43v-239h123v239q0 20 9.5 31.5t33.5 11.5q43 0 43 -43v-239h33q37 0 37 -45q0 -41 -37 -41h-33v-115q0 -45 -43 -45t-43 45v115h-156q-53 0 -53 55z" />
<glyph unicode="&#xbf;" horiz-adv-x="815" d="M25 326q0 68 16 120t44 93t65.5 75.5t80.5 69.5q33 25 63 50.5t52.5 52t36.5 58.5t14 68q0 37 21.5 54.5t46.5 17.5t44 -17.5t19 -54.5q0 -104 -60 -183t-146 -140q-66 -49 -113 -108.5t-47 -151.5q0 -49 17.5 -90t47 -70t68.5 -45t82 -16q98 0 171 46t109 150 q10 29 27.5 39t40.5 10t40 -19.5t17 -49.5q0 -4 -1 -11.5t-3 -17.5q-45 -141 -153.5 -211t-243.5 -70q-76 0 -140.5 25t-112.5 71t-75.5 110.5t-27.5 144.5zM354 1219q0 47 31 79.5t84 32.5q45 0 79 -32.5t34 -79.5t-34 -83t-79 -36q-53 0 -84 35.5t-31 83.5z" />
<glyph unicode="&#xc0;" horiz-adv-x="1236" d="M27 66l526 1204q10 18 26.5 34.5t38.5 16.5q20 0 38 -15.5t28 -37.5l506 -1157q4 -12 10 -23.5t6 -21.5q0 -29 -19.5 -47.5t-45.5 -18.5q-45 0 -66 49l-164 379h-592l-161 -379q-10 -20 -27.5 -34.5t-36.5 -14.5q-29 0 -48 18.5t-19 47.5zM379 559h477l-238 549z M446 1575q0 31 23 53.5t53 22.5q25 0 47 -13l197 -149q25 -18 25 -45q0 -20 -15.5 -36.5t-38.5 -16.5q-14 0 -28 8l-220 114q-43 20 -43 62z" />
<glyph unicode="&#xc1;" horiz-adv-x="1236" d="M27 66l526 1204q10 18 26.5 34.5t38.5 16.5q20 0 38 -15.5t28 -37.5l506 -1157q4 -12 10 -23.5t6 -21.5q0 -29 -19.5 -47.5t-45.5 -18.5q-45 0 -66 49l-164 379h-592l-161 -379q-10 -20 -27.5 -34.5t-36.5 -14.5q-29 0 -48 18.5t-19 47.5zM379 559h477l-238 549z M446 1444q0 12 6.5 24.5t20.5 20.5l195 149q10 8 22 10.5t23 2.5q35 0 56.5 -22.5t21.5 -53.5q0 -27 -10.5 -38t-32.5 -24l-220 -114q-14 -8 -28 -8q-23 0 -38.5 16t-15.5 37z" />
<glyph unicode="&#xc2;" horiz-adv-x="1236" d="M27 66l526 1204q10 18 26.5 34.5t38.5 16.5q20 0 38 -15.5t28 -37.5l506 -1157q4 -12 10 -23.5t6 -21.5q0 -29 -19.5 -47.5t-45.5 -18.5q-45 0 -66 49l-164 379h-592l-161 -379q-10 -20 -27.5 -34.5t-36.5 -14.5q-29 0 -48 18.5t-19 47.5zM360 1434q0 20 21 41l178 149 q23 23 64 23q14 0 31.5 -6.5t27.5 -16.5l174 -149q16 -23 16 -43q0 -23 -14 -39.5t-37 -16.5t-43 19l-157 147l-158 -147q-23 -16 -45 -17q-25 0 -41.5 15.5t-16.5 40.5zM379 559h477l-238 549z" />
<glyph unicode="&#xc3;" horiz-adv-x="1236" d="M27 66l526 1204q10 18 26.5 34.5t38.5 16.5q20 0 38 -15.5t28 -37.5l506 -1157q4 -12 10 -23.5t6 -21.5q0 -29 -19.5 -47.5t-45.5 -18.5q-45 0 -66 49l-164 379h-592l-161 -379q-10 -20 -27.5 -34.5t-36.5 -14.5q-29 0 -48 18.5t-19 47.5zM332 1446q0 25 15 44t40 33.5 t57.5 22.5t67.5 8q43 0 74.5 -9t55.5 -20.5t43.5 -20.5t39.5 -9q27 0 45 9t33.5 20.5t29 20.5t31.5 9q16 0 28.5 -14t12.5 -33q0 -53 -56 -81.5t-124 -28.5q-39 0 -68.5 9t-54 21.5t-47.5 21.5t-43 9q-29 0 -46 -9t-30.5 -20.5t-27 -20.5t-33.5 -9q-18 0 -30.5 14.5 t-12.5 32.5zM379 559h477l-238 549z" />
<glyph unicode="&#xc4;" horiz-adv-x="1236" d="M27 66l526 1204q10 18 26.5 34.5t38.5 16.5q20 0 38 -15.5t28 -37.5l506 -1157q4 -12 10 -23.5t6 -21.5q0 -29 -19.5 -47.5t-45.5 -18.5q-45 0 -66 49l-164 379h-592l-161 -379q-10 -20 -27.5 -34.5t-36.5 -14.5q-29 0 -48 18.5t-19 47.5zM315 1481q0 37 24.5 62.5 t59.5 25.5t59.5 -25.5t24.5 -62.5q0 -39 -24.5 -63.5t-59.5 -24.5t-59.5 24.5t-24.5 63.5zM379 559h477l-238 549zM754 1481q0 37 22.5 62.5t57.5 25.5t60.5 -25.5t25.5 -62.5q0 -39 -26 -63.5t-60 -24.5q-35 0 -57.5 24.5t-22.5 63.5z" />
<glyph unicode="&#xc5;" horiz-adv-x="1236" d="M27 66l503 1151q-47 23 -73.5 66.5t-26.5 100.5q0 39 14.5 74t40 60.5t59 41t74.5 15.5q39 0 73 -15.5t59.5 -42t40 -60.5t14.5 -73q0 -57 -26.5 -101t-73.5 -66l485 -1106q4 -12 10 -23.5t6 -21.5q0 -29 -19.5 -47.5t-45.5 -18.5q-45 0 -66 49l-164 379h-592l-161 -379 q-10 -20 -27.5 -34.5t-36.5 -14.5q-29 0 -48 18.5t-19 47.5zM379 559h477l-238 549zM508 1389q0 -47 32.5 -80t77.5 -33q43 0 76 32.5t33 80.5q0 45 -33 78.5t-76 33.5q-45 0 -77.5 -35.5t-32.5 -76.5z" />
<glyph unicode="&#xc6;" horiz-adv-x="1697" d="M27 61q0 20 16 50l727 1128q45 61 127 61h672q80 0 80 -65q0 -66 -80 -66h-563v-383h530q82 0 82 -67q0 -66 -82 -66h-530v-522h559q82 0 82 -65q0 -66 -82 -66h-621q-72 0 -72 80v356h-460l-262 -397q-27 -39 -60 -39q-25 0 -44 16.5t-19 44.5zM481 543h391v600z" />
<glyph unicode="&#xc7;" horiz-adv-x="1329" d="M51 643q0 139 53.5 264t145.5 220.5t217 150.5t268 55q276 0 465 -176q23 -23 23 -51q0 -27 -19.5 -46.5t-46.5 -19.5q-16 0 -29.5 7.5t-25.5 17.5q-72 72 -167 103.5t-200 31.5q-117 0 -218 -46t-175 -123t-117 -177t-43 -211q0 -115 45 -214t121 -172t176.5 -115 t210.5 -42q258 0 416 185q14 20 49 20q29 0 48.5 -17.5t19.5 -45.5q0 -12 -4 -22.5t-11 -20.5q-104 -117 -239 -173.5t-295 -56.5l-8 -71q57 0 95 -24t38 -71q0 -63 -54.5 -102t-146.5 -39q-68 0 -114 13.5t-46 41.5q0 10 9.5 21.5t23.5 11.5q23 0 48.5 -7t53.5 -7 q68 0 103 15.5t35 39.5q0 20 -19.5 25.5t-44 9.5t-44 14t-19.5 39q0 10 3 31.5t9 62.5q-125 16 -232.5 76t-187.5 150t-125 203.5t-45 240.5z" />
<glyph unicode="&#xc8;" horiz-adv-x="866" d="M68 66v1169q0 29 17 47t46 18h643q29 0 47.5 -18t18.5 -47q0 -27 -18.5 -46.5t-47.5 -19.5h-575v-383h542q29 0 47.5 -19t18.5 -48q0 -27 -18.5 -47.5t-47.5 -20.5h-542v-520h571q27 0 46.5 -18.5t19.5 -46.5q0 -29 -19.5 -47.5t-46.5 -18.5h-639q-29 0 -46 18.5 t-17 47.5zM260 1575q0 31 22.5 53.5t53.5 22.5q10 0 22.5 -2t22.5 -11l197 -149q27 -14 26 -45q0 -20 -16.5 -36.5t-36.5 -16.5q-14 0 -29 8l-219 114q-43 20 -43 62z" />
<glyph unicode="&#xc9;" horiz-adv-x="866" d="M68 66v1169q0 29 17 47t46 18h643q29 0 47.5 -18t18.5 -47q0 -27 -18.5 -46.5t-47.5 -19.5h-575v-383h542q29 0 47.5 -19t18.5 -48q0 -27 -18.5 -47.5t-47.5 -20.5h-542v-520h571q27 0 46.5 -18.5t19.5 -46.5q0 -29 -19.5 -47.5t-46.5 -18.5h-639q-29 0 -46 18.5 t-17 47.5zM260 1444q0 29 25 45l194 149q20 12 47 13q35 0 56.5 -22.5t21.5 -53.5q0 -27 -10 -38t-33 -24l-219 -114q-14 -8 -31 -8q-23 0 -37 16t-14 37z" />
<glyph unicode="&#xca;" horiz-adv-x="866" d="M68 66v1169q0 29 17 47t46 18h643q29 0 47.5 -18t18.5 -47q0 -27 -18.5 -46.5t-47.5 -19.5h-575v-383h542q29 0 47.5 -19t18.5 -48q0 -27 -18.5 -47.5t-47.5 -20.5h-542v-520h571q27 0 46.5 -18.5t19.5 -46.5q0 -29 -19.5 -47.5t-46.5 -18.5h-639q-29 0 -46 18.5 t-17 47.5zM176 1434q0 23 21 41l178 149q23 23 63 23q31 0 60 -23l172 -149q18 -23 18 -43q0 -23 -14.5 -39.5t-36.5 -16.5q-25 0 -43 19l-158 147l-157 -147q-23 -16 -46 -17q-25 0 -41 15.5t-16 40.5z" />
<glyph unicode="&#xcb;" horiz-adv-x="866" d="M68 66v1169q0 29 17 47t46 18h643q29 0 47.5 -18t18.5 -47q0 -27 -18.5 -46.5t-47.5 -19.5h-575v-383h542q29 0 47.5 -19t18.5 -48q0 -27 -18.5 -47.5t-47.5 -20.5h-542v-520h571q27 0 46.5 -18.5t19.5 -46.5q0 -29 -19.5 -47.5t-46.5 -18.5h-639q-29 0 -46 18.5 t-17 47.5zM129 1481q0 37 24.5 62.5t59.5 25.5t59.5 -25.5t24.5 -62.5q0 -39 -24.5 -63.5t-59.5 -24.5t-59.5 24.5t-24.5 63.5zM567 1481q0 37 22.5 62.5t57.5 25.5t60.5 -25.5t25.5 -62.5q0 -39 -25.5 -63.5t-60.5 -24.5t-57.5 24.5t-22.5 63.5z" />
<glyph unicode="&#xcc;" horiz-adv-x="663" d="M14 68q0 63 70 63h186v1038h-186q-70 0 -70 68q0 63 70 63h498q68 0 67 -65q0 -66 -67 -66h-181v-1038h181q68 0 67 -65q0 -66 -67 -66h-498q-70 0 -70 68zM160 1575q0 31 22.5 53.5t53.5 22.5q10 0 22 -2t23 -11l196 -149q27 -14 27 -45q0 -20 -16.5 -36.5t-36.5 -16.5 q-14 0 -29 8l-219 114q-43 20 -43 62z" />
<glyph unicode="&#xcd;" horiz-adv-x="663" d="M14 68q0 63 70 63h186v1038h-186q-70 0 -70 68q0 63 70 63h498q68 0 67 -65q0 -66 -67 -66h-181v-1038h181q68 0 67 -65q0 -66 -67 -66h-498q-70 0 -70 68zM160 1444q0 29 24 45l195 149q20 12 47 13q35 0 56.5 -22.5t21.5 -53.5q0 -27 -10.5 -38t-32.5 -24l-219 -114 q-14 -8 -29 -8q-23 0 -38 16t-15 37z" />
<glyph unicode="&#xce;" horiz-adv-x="663" d="M14 68q0 63 70 63h186v1038h-186q-70 0 -70 68q0 63 70 63h498q68 0 67 -65q0 -66 -67 -66h-181v-1038h181q68 0 67 -65q0 -66 -67 -66h-498q-70 0 -70 68zM76 1434q0 20 20 41l178 149q23 23 64 23q31 0 59 -23l174 -149q16 -23 17 -43q0 -23 -14.5 -39.5t-36.5 -16.5 q-23 0 -43 19l-158 147l-158 -147q-23 -16 -45 -17q-25 0 -41 15.5t-16 40.5z" />
<glyph unicode="&#xcf;" horiz-adv-x="663" d="M14 68q0 63 70 63h186v1038h-186q-70 0 -70 68q0 63 70 63h498q68 0 67 -65q0 -66 -67 -66h-181v-1038h181q68 0 67 -65q0 -66 -67 -66h-498q-70 0 -70 68zM31 1481q0 37 24.5 62.5t59.5 25.5t59.5 -25.5t24.5 -62.5q0 -39 -24.5 -63.5t-59.5 -24.5t-59.5 24.5 t-24.5 63.5zM469 1481q0 37 22.5 62.5t57.5 25.5t60.5 -25.5t25.5 -62.5q0 -39 -25.5 -63.5t-60.5 -24.5t-57.5 24.5t-22.5 63.5z" />
<glyph unicode="&#xd0;" horiz-adv-x="1269" d="M57 645q0 63 72 64h21v526q0 29 19 47t46 18h340q141 0 263 -51t211 -139t140.5 -207t51.5 -254q0 -147 -55.5 -267t-150.5 -205t-221 -131t-268 -46h-311q-27 0 -46 18.5t-19 47.5v512h-21q-72 0 -72 67zM285 131h247q117 0 217.5 39t175 107.5t116.5 164t42 207.5 q0 115 -43 211t-117.5 165t-175 106.5t-215.5 37.5h-247v-460h247q66 0 66 -66t-66 -65h-247v-447z" />
<glyph unicode="&#xd1;" horiz-adv-x="1167" d="M68 68v1171q0 29 18 45t45 16q25 0 49 -24l787 -1057v1018q0 63 63 63q70 0 70 -63v-1149q0 -45 -26.5 -66.5t-57.5 -21.5q-33 0 -58 33l-755 1007v-972q0 -68 -70 -68q-66 0 -65 68zM297 1446q0 25 15.5 44t40 33.5t57 22.5t67.5 8q43 0 75 -9t55.5 -20.5t43 -20.5 t39.5 -9q27 0 45.5 9t33.5 20.5t28.5 20.5t31.5 9q16 0 28.5 -14t12.5 -33q0 -53 -56 -81.5t-124 -28.5q-39 0 -68.5 9t-54 21.5t-47 21.5t-43.5 9q-29 0 -46 -9t-30.5 -20.5t-27 -20.5t-33.5 -9q-18 0 -30.5 14.5t-12.5 32.5z" />
<glyph unicode="&#xd2;" horiz-adv-x="1474" d="M51 643q0 139 52.5 264t143.5 220.5t214 150.5t266 55q147 0 274 -54t220.5 -147.5t146.5 -217t53 -265.5q0 -141 -53 -266t-145.5 -217t-217 -145.5t-268.5 -53.5q-141 0 -266 53.5t-218 144.5t-147.5 214t-54.5 264zM188 643q0 -115 42 -214t116 -174t174.5 -118 t214.5 -43q117 0 217.5 43t174 119t116.5 176t43 217q0 113 -43 214.5t-118.5 177t-176 119.5t-213.5 44q-117 0 -217 -45t-173 -121.5t-115 -179t-42 -215.5zM567 1575q0 31 22.5 53.5t51.5 22.5q25 0 47 -13l197 -149q25 -18 24 -45q0 -20 -15 -36.5t-36 -16.5 q-20 0 -29 8l-221 114q-41 23 -41 62z" />
<glyph unicode="&#xd3;" horiz-adv-x="1474" d="M51 643q0 139 52.5 264t143.5 220.5t214 150.5t266 55q147 0 274 -54t220.5 -147.5t146.5 -217t53 -265.5q0 -141 -53 -266t-145.5 -217t-217 -145.5t-268.5 -53.5q-141 0 -266 53.5t-218 144.5t-147.5 214t-54.5 264zM188 643q0 -115 42 -214t116 -174t174.5 -118 t214.5 -43q117 0 217.5 43t174 119t116.5 176t43 217q0 113 -43 214.5t-118.5 177t-176 119.5t-213.5 44q-117 0 -217 -45t-173 -121.5t-115 -179t-42 -215.5zM567 1444q0 12 5.5 24.5t19.5 20.5l194 149q10 8 23.5 10.5t24.5 2.5q33 0 54 -22.5t21 -53.5q0 -47 -43 -62 l-219 -114q-14 -8 -29 -8q-23 0 -37 16t-14 37z" />
<glyph unicode="&#xd4;" horiz-adv-x="1474" d="M51 643q0 139 52.5 264t143.5 220.5t214 150.5t266 55q147 0 274 -54t220.5 -147.5t146.5 -217t53 -265.5q0 -141 -53 -266t-145.5 -217t-217 -145.5t-268.5 -53.5q-141 0 -266 53.5t-218 144.5t-147.5 214t-54.5 264zM188 643q0 -115 42 -214t116 -174t174.5 -118 t214.5 -43q117 0 217.5 43t174 119t116.5 176t43 217q0 113 -43 214.5t-118.5 177t-176 119.5t-213.5 44q-117 0 -217 -45t-173 -121.5t-115 -179t-42 -215.5zM481 1434q0 18 23 41l176 149q29 23 63 23q37 0 60 -23l174 -149q18 -23 18 -43q0 -23 -15 -39.5t-38 -16.5 t-43 19l-158 147l-157 -147q-23 -16 -45 -17q-25 0 -41.5 15.5t-16.5 40.5z" />
<glyph unicode="&#xd5;" horiz-adv-x="1474" d="M51 643q0 139 52.5 264t143.5 220.5t214 150.5t266 55q147 0 274 -54t220.5 -147.5t146.5 -217t53 -265.5q0 -141 -53 -266t-145.5 -217t-217 -145.5t-268.5 -53.5q-141 0 -266 53.5t-218 144.5t-147.5 214t-54.5 264zM188 643q0 -115 42 -214t116 -174t174.5 -118 t214.5 -43q117 0 217.5 43t174 119t116.5 176t43 217q0 113 -43 214.5t-118.5 177t-176 119.5t-213.5 44q-117 0 -217 -45t-173 -121.5t-115 -179t-42 -215.5zM449 1446q0 25 15 44t40.5 33.5t58.5 22.5t68 8q43 0 73.5 -9t55 -20.5t44 -20.5t38.5 -9q27 0 45 9t33.5 20.5 t29 20.5t31.5 9q16 0 29.5 -14t13.5 -33q0 -27 -15.5 -47t-42 -34.5t-59.5 -21.5t-65 -7q-39 0 -69 9t-54.5 21.5t-46 21.5t-41.5 9q-29 0 -47.5 -9t-32.5 -20.5t-27.5 -20.5t-31.5 -9q-16 0 -29.5 14.5t-13.5 32.5z" />
<glyph unicode="&#xd6;" horiz-adv-x="1474" d="M51 643q0 139 52.5 264t143.5 220.5t214 150.5t266 55q147 0 274 -54t220.5 -147.5t146.5 -217t53 -265.5q0 -141 -53 -266t-145.5 -217t-217 -145.5t-268.5 -53.5q-141 0 -266 53.5t-218 144.5t-147.5 214t-54.5 264zM188 643q0 -115 42 -214t116 -174t174.5 -118 t214.5 -43q117 0 217.5 43t174 119t116.5 176t43 217q0 113 -43 214.5t-118.5 177t-176 119.5t-213.5 44q-117 0 -217 -45t-173 -121.5t-115 -179t-42 -215.5zM436 1481q0 37 23.5 62.5t58.5 25.5t60.5 -25.5t25.5 -62.5q0 -39 -25.5 -63.5t-60.5 -24.5t-58.5 24.5 t-23.5 63.5zM872 1481q0 37 23.5 62.5t58.5 25.5t59.5 -25.5t24.5 -62.5q0 -39 -24.5 -63.5t-59.5 -24.5t-58.5 24.5t-23.5 63.5z" />
<glyph unicode="&#xd7;" horiz-adv-x="817" d="M72 356q0 20 22 50l221 219l-215 213q-29 29 -28 55q0 23 23.5 45.5t45.5 22.5q4 -10 20.5 -12.5t31.5 -16.5l215 -215l217 215q25 29 49 29q23 0 45 -21.5t22 -46.5q-2 -14 -6 -27.5t-18 -27.5l-215 -213l219 -219q20 -20 20 -50q0 -27 -22.5 -48t-44.5 -21 q-25 0 -45 24l-221 219l-220 -219q-12 -14 -24 -19t-21 -5q-23 0 -47 23.5t-24 45.5z" />
<glyph unicode="&#xd8;" horiz-adv-x="1480" d="M53 643q0 139 52.5 264t144.5 220.5t216 150.5t265 55q104 0 197.5 -29.5t173.5 -76.5l53 63q18 23 47 23q27 0 47.5 -19.5t20.5 -46.5q0 -16 -6.5 -24.5t-10.5 -20.5l-47 -55q104 -94 161.5 -222t57.5 -276q0 -141 -54 -266t-147.5 -217t-218 -145.5t-266.5 -53.5 q-221 0 -395 123l-37 -47q-14 -16 -29.5 -22.5t-27.5 -6.5q-27 0 -44.5 18.5t-17.5 45.5q0 8 3.5 19.5t13.5 21.5l41 55q-88 92 -140.5 210t-52.5 259zM190 643q0 -104 37 -198.5t105 -168.5l688 848q-63 37 -135 58.5t-150 21.5q-117 0 -216 -45t-172 -121.5t-115 -179 t-42 -215.5zM428 190q66 -43 142.5 -69.5t164.5 -26.5q115 0 216.5 43t176 119t117.5 176t43 217t-44 217.5t-122 177.5z" />
<glyph unicode="&#xd9;" horiz-adv-x="1032" d="M68 457v770q0 74 63 73q68 0 68 -73v-770q0 -160 81.5 -261.5t241.5 -101.5q86 0 145.5 26.5t96.5 75t53.5 115t16.5 146.5v770q0 74 67 73q61 0 62 -73v-770q0 -106 -29 -195.5t-84 -155t-136 -102.5t-186 -37q-104 0 -189 37t-145.5 102.5t-93 154.5t-32.5 196z M344 1575q0 31 22.5 53.5t53.5 22.5q25 0 47 -13l197 -149q25 -18 24 -45q0 -20 -15.5 -36.5t-35.5 -16.5q-16 0 -31 8l-219 114q-43 20 -43 62z" />
<glyph unicode="&#xda;" horiz-adv-x="1032" d="M68 457v770q0 74 63 73q68 0 68 -73v-770q0 -160 81.5 -261.5t241.5 -101.5q86 0 145.5 26.5t96.5 75t53.5 115t16.5 146.5v770q0 74 67 73q61 0 62 -73v-770q0 -106 -29 -195.5t-84 -155t-136 -102.5t-186 -37q-104 0 -189 37t-145.5 102.5t-93 154.5t-32.5 196z M344 1444q0 12 6 24.5t21 20.5l194 149q10 8 22.5 10.5t22.5 2.5q35 0 56.5 -22.5t21.5 -53.5q0 -27 -10 -38t-33 -24l-219 -114q-14 -8 -29 -8q-23 0 -38 16t-15 37z" />
<glyph unicode="&#xdb;" horiz-adv-x="1032" d="M68 457v770q0 74 63 73q68 0 68 -73v-770q0 -160 81.5 -261.5t241.5 -101.5q86 0 145.5 26.5t96.5 75t53.5 115t16.5 146.5v770q0 74 67 73q61 0 62 -73v-770q0 -106 -29 -195.5t-84 -155t-136 -102.5t-186 -37q-104 0 -189 37t-145.5 102.5t-93 154.5t-32.5 196z M260 1434q0 20 21 41l178 149q23 23 63 23q14 0 31.5 -6.5t28.5 -16.5l174 -149q16 -23 16 -43q0 -23 -14.5 -39.5t-36.5 -16.5q-23 0 -43 19l-158 147l-158 -147q-23 -16 -45 -17q-25 0 -41 15.5t-16 40.5z" />
<glyph unicode="&#xdc;" horiz-adv-x="1032" d="M68 457v770q0 74 63 73q68 0 68 -73v-770q0 -160 81.5 -261.5t241.5 -101.5q86 0 145.5 26.5t96.5 75t53.5 115t16.5 146.5v770q0 74 67 73q61 0 62 -73v-770q0 -106 -29 -195.5t-84 -155t-136 -102.5t-186 -37q-104 0 -189 37t-145.5 102.5t-93 154.5t-32.5 196z M215 1481q0 37 24.5 62.5t59.5 25.5t59.5 -25.5t24.5 -62.5q0 -39 -24.5 -63.5t-59.5 -24.5t-59.5 24.5t-24.5 63.5zM653 1481q0 37 23.5 62.5t58.5 25.5t59.5 -25.5t24.5 -62.5q0 -39 -24.5 -63.5t-59.5 -24.5t-58.5 24.5t-23.5 63.5z" />
<glyph unicode="&#xdd;" horiz-adv-x="903" d="M14 1227q0 31 21.5 52t48.5 21q31 0 49 -30l316 -592l315 590q8 16 23.5 24t31.5 8q27 0 49.5 -17t22.5 -46q0 -10 -3 -16.5t-7 -16.5l-369 -647v-487q0 -70 -59 -70q-68 0 -68 70v487l-362 635q-8 14 -9 35zM279 1444q0 12 6 24.5t20 20.5l195 149q10 8 22.5 10.5 t22.5 2.5q35 0 56.5 -22.5t21.5 -53.5q0 -27 -10.5 -38t-32.5 -24l-220 -114q-14 -8 -28 -8q-23 0 -38 16t-15 37z" />
<glyph unicode="&#xde;" horiz-adv-x="892" d="M78 57v1184q0 59 63 59q66 0 66 -59v-246h160q115 0 211 -10t164.5 -46t107.5 -104.5t39 -185.5q0 -109 -39 -175t-107.5 -105t-165 -52.5t-210.5 -13.5h-160v-246q0 -57 -66 -57q-63 0 -63 57zM207 428h250q90 0 147.5 19.5t91 50t46 70.5t12.5 81q0 117 -84 168 t-234 51h-229v-440z" />
<glyph unicode="&#xdf;" horiz-adv-x="829" d="M72 70v979q0 59 22.5 110t62.5 89t94 59.5t120 21.5q70 0 126 -24.5t96 -65.5t60.5 -95t20.5 -114q0 -94 -30 -152.5t-66.5 -100.5t-66.5 -75.5t-30 -76.5q0 -41 22.5 -65.5t56.5 -42t74 -35t73.5 -45t56 -70.5t22.5 -113q0 -53 -21.5 -103.5t-58 -89t-85 -62.5 t-103.5 -24q-92 0 -158.5 35t-107.5 99q-8 8 -8 32q0 23 17.5 42.5t41.5 19.5q25 0 39 -15q35 -35 78 -63.5t90 -28.5q31 0 58.5 12.5t49 33t34 48t12.5 56.5q0 41 -23 67.5t-57.5 47t-74.5 42t-75 50t-57.5 70.5t-22.5 106q0 66 30 108.5t65.5 82.5t65.5 85t30 117 q0 49 -15.5 84t-40 56.5t-56.5 31.5t-62 10q-35 0 -66 -13t-54.5 -34.5t-37.5 -49.5t-14 -58v-979q0 -70 -66 -70q-61 0 -61 70z" />
<glyph unicode="&#xe0;" horiz-adv-x="1003" d="M51 440q0 98 34 182.5t93.5 146.5t140 97t175.5 35q49 0 97 -12t91 -35t77 -55.5t52 -73.5v102q0 29 18.5 47.5t47.5 18.5q27 0 43 -18.5t18 -47.5v-784q0 -27 -19.5 -47.5t-46.5 -20.5q-29 0 -45 20.5t-16 47.5v117q-20 -41 -54 -74t-77 -56.5t-90 -35.5t-96 -12 q-94 0 -175 35.5t-140.5 97t-93.5 145.5t-34 180zM178 440q0 -68 23.5 -129t65.5 -106t100.5 -72t126.5 -27q70 0 128 27t100 72t65.5 106.5t23.5 128.5q0 68 -23.5 129.5t-65.5 107.5t-100 72.5t-128 26.5q-68 0 -126.5 -26.5t-100.5 -72.5t-65.5 -107.5t-23.5 -129.5z M330 1145q0 31 22.5 54.5t53.5 23.5q25 0 45 -15l196 -147q25 -18 25 -47q0 -20 -15.5 -35.5t-35.5 -15.5q-8 0 -14.5 1t-14.5 5l-219 114q-43 20 -43 62z" />
<glyph unicode="&#xe1;" horiz-adv-x="1003" d="M51 440q0 98 34 182.5t93.5 146.5t140 97t175.5 35q49 0 97 -12t91 -35t77 -55.5t52 -73.5v102q0 29 18.5 47.5t47.5 18.5q27 0 43 -18.5t18 -47.5v-784q0 -27 -19.5 -47.5t-46.5 -20.5q-29 0 -45 20.5t-16 47.5v117q-20 -41 -54 -74t-77 -56.5t-90 -35.5t-96 -12 q-94 0 -175 35.5t-140.5 97t-93.5 145.5t-34 180zM178 440q0 -68 23.5 -129t65.5 -106t100.5 -72t126.5 -27q70 0 128 27t100 72t65.5 106.5t23.5 128.5q0 68 -23.5 129.5t-65.5 107.5t-100 72.5t-128 26.5q-68 0 -126.5 -26.5t-100.5 -72.5t-65.5 -107.5t-23.5 -129.5z M330 1014q0 29 24 47l195 147q20 14 47 15q33 0 54.5 -23.5t21.5 -54.5q0 -33 -9.5 -42t-31.5 -20l-221 -114q-8 -4 -14.5 -5t-14.5 -1q-23 0 -37 15t-14 36z" />
<glyph unicode="&#xe2;" horiz-adv-x="1003" d="M51 440q0 98 34 182.5t93.5 146.5t140 97t175.5 35q49 0 97 -12t91 -35t77 -55.5t52 -73.5v102q0 29 18.5 47.5t47.5 18.5q27 0 43 -18.5t18 -47.5v-784q0 -27 -19.5 -47.5t-46.5 -20.5q-29 0 -45 20.5t-16 47.5v117q-20 -41 -54 -74t-77 -56.5t-90 -35.5t-96 -12 q-94 0 -175 35.5t-140.5 97t-93.5 145.5t-34 180zM178 440q0 -68 23.5 -129t65.5 -106t100.5 -72t126.5 -27q70 0 128 27t100 72t65.5 106.5t23.5 128.5q0 68 -23.5 129.5t-65.5 107.5t-100 72.5t-128 26.5q-68 0 -126.5 -26.5t-100.5 -72.5t-65.5 -107.5t-23.5 -129.5z M246 1004q0 23 20 40l176 150q29 23 64 23q33 0 61 -23l172 -150q18 -23 19 -43q0 -23 -15.5 -39t-37.5 -16q-23 0 -41 19l-158 147l-160 -147q-23 -16 -43 -17q-25 0 -41 15.5t-16 40.5z" />
<glyph unicode="&#xe3;" horiz-adv-x="1003" d="M51 440q0 98 34 182.5t93.5 146.5t140 97t175.5 35q49 0 97 -12t91 -35t77 -55.5t52 -73.5v102q0 29 18.5 47.5t47.5 18.5q27 0 43 -18.5t18 -47.5v-784q0 -27 -19.5 -47.5t-46.5 -20.5q-29 0 -45 20.5t-16 47.5v117q-20 -41 -54 -74t-77 -56.5t-90 -35.5t-96 -12 q-94 0 -175 35.5t-140.5 97t-93.5 145.5t-34 180zM178 440q0 -68 23.5 -129t65.5 -106t100.5 -72t126.5 -27q70 0 128 27t100 72t65.5 106.5t23.5 128.5q0 68 -23.5 129.5t-65.5 107.5t-100 72.5t-128 26.5q-68 0 -126.5 -26.5t-100.5 -72.5t-65.5 -107.5t-23.5 -129.5z M213 1016q0 25 15.5 44t41 34.5t58 23.5t67.5 8q43 0 74 -9t55.5 -21.5t44 -21.5t37.5 -9q27 0 45.5 9t33.5 21.5t29.5 21.5t30.5 9t29.5 -15t13.5 -34q0 -27 -15 -47t-40.5 -34.5t-58.5 -21.5t-68 -7q-37 0 -67.5 9t-55 21.5t-46 21.5t-42.5 9q-29 0 -46 -9t-31.5 -20.5 t-28 -20.5t-33.5 -9q-16 0 -29.5 14.5t-13.5 32.5z" />
<glyph unicode="&#xe4;" horiz-adv-x="1003" d="M51 440q0 98 34 182.5t93.5 146.5t140 97t175.5 35q49 0 97 -12t91 -35t77 -55.5t52 -73.5v102q0 29 18.5 47.5t47.5 18.5q27 0 43 -18.5t18 -47.5v-784q0 -27 -19.5 -47.5t-46.5 -20.5q-29 0 -45 20.5t-16 47.5v117q-20 -41 -54 -74t-77 -56.5t-90 -35.5t-96 -12 q-94 0 -175 35.5t-140.5 97t-93.5 145.5t-34 180zM178 440q0 -68 23.5 -129t65.5 -106t100.5 -72t126.5 -27q70 0 128 27t100 72t65.5 106.5t23.5 128.5q0 68 -23.5 129.5t-65.5 107.5t-100 72.5t-128 26.5q-68 0 -126.5 -26.5t-100.5 -72.5t-65.5 -107.5t-23.5 -129.5z M238 1051q0 37 23 62.5t58 25.5t61 -26t26 -62q0 -39 -26 -63.5t-61 -24.5t-58 24.5t-23 63.5zM674 1051q0 37 23.5 62.5t58.5 25.5t59.5 -26t24.5 -62q0 -39 -24.5 -63.5t-59.5 -24.5t-58.5 24.5t-23.5 63.5z" />
<glyph unicode="&#xe5;" horiz-adv-x="1003" d="M51 440q0 80 22.5 152t63.5 129t98.5 99t124.5 63q-47 53 -47 125q0 80 55.5 135t135.5 55q39 0 72.5 -15.5t59.5 -41t40 -60t14 -73.5q0 -80 -53 -134q57 -23 103 -60.5t71 -88.5v102q0 29 18.5 47.5t47.5 18.5q27 0 43 -18.5t18 -47.5v-784q0 -27 -19.5 -47.5 t-46.5 -20.5q-29 0 -45 20.5t-16 47.5v117q-20 -41 -54 -74t-77 -56.5t-90 -35.5t-96 -12q-94 0 -175 35.5t-140.5 97t-93.5 145.5t-34 180zM178 440q0 -68 23.5 -129t65.5 -106t100.5 -72t126.5 -27q70 0 128 27t100 72t65.5 106.5t23.5 128.5q0 68 -23.5 129.5 t-65.5 107.5t-100 72.5t-128 26.5q-68 0 -126.5 -26.5t-100.5 -72.5t-65.5 -107.5t-23.5 -129.5zM393 1012q0 -47 32 -80t79 -33q43 0 74.5 33t31.5 80q0 45 -31.5 79.5t-74.5 34.5q-47 0 -79 -36.5t-32 -77.5z" />
<glyph unicode="&#xe6;" horiz-adv-x="1794" d="M61 440q0 98 34 182.5t93.5 146.5t140.5 97t177 35q98 0 187 -47t130 -129v102q0 29 19.5 47.5t48.5 18.5q23 0 40 -18.5t17 -47.5v-73q63 68 149.5 107.5t190.5 39.5q88 0 163 -29.5t138 -83.5q25 -20 50.5 -54t48 -73.5t37 -79.5t14.5 -71q0 -27 -18.5 -46.5 t-51.5 -19.5h-715v-4q0 -72 27 -133t73 -105t106.5 -70t127.5 -26q80 0 154 33t121 92q12 14 23 26.5t34 12.5q29 0 49.5 -19.5t20.5 -47.5q-6 -33 -41 -72q-72 -76 -167.5 -112.5t-193.5 -36.5q-104 0 -190 39.5t-150 107.5v-86q0 -27 -18.5 -47.5t-46.5 -20.5 q-29 0 -44.5 20.5t-15.5 47.5v117q-20 -41 -55 -74t-78 -56.5t-91 -35.5t-93 -12q-96 0 -177 35.5t-140.5 97t-93.5 145.5t-34 180zM188 440q0 -68 24 -129t65.5 -106t100 -72t128.5 -27t128 27t100 72t65.5 106.5t23.5 128.5q0 68 -23.5 129.5t-65.5 107.5t-100 72.5 t-128 26.5t-128.5 -26.5t-100 -72.5t-65.5 -107.5t-24 -129.5zM977 561h620q-14 45 -44.5 84t-71.5 68.5t-91.5 46t-101.5 16.5t-100 -17.5t-92 -46t-74 -67.5t-45 -84z" />
<glyph unicode="&#xe7;" horiz-adv-x="931" d="M51 440q0 98 36 182.5t98.5 146.5t146.5 97t180 35q47 0 106.5 -14.5t112.5 -39t89 -56t36 -64.5q0 -27 -19.5 -45t-48.5 -18q-23 0 -33 6t-26 22q-35 35 -93 59.5t-124 24.5q-68 0 -128 -26.5t-105.5 -72.5t-72 -107.5t-26.5 -129.5t26.5 -129t72 -106t105.5 -72 t128 -27q78 0 142.5 29t105.5 80q14 16 25.5 26.5t35.5 10.5q29 0 47.5 -18.5t18.5 -47.5q-2 -29 -29 -55q-66 -68 -149.5 -107.5t-184.5 -41.5l-12 -84q57 0 96 -24t39 -71q0 -63 -55 -102t-148 -39q-68 0 -113.5 13.5t-45.5 41.5q0 10 10 21.5t24 11.5q23 0 47.5 -7 t55.5 -7q66 0 101.5 15.5t35.5 39.5q0 20 -20.5 25.5t-44 9.5t-44 14t-20.5 39q0 2 1 4t1 4l12 99q-84 12 -156.5 52t-124.5 100.5t-82 138t-30 163.5z" />
<glyph unicode="&#xe8;" d="M51 440q0 98 36 182.5t97.5 146.5t145.5 97t180 35q86 0 164 -29.5t139 -83.5q23 -25 49.5 -59.5t49 -71t37 -75.5t14.5 -72q0 -27 -19.5 -46.5t-50.5 -19.5h-715v-4q0 -72 26.5 -133t73 -105t105.5 -70t127 -26q78 0 153.5 33t122.5 92q10 14 23.5 26.5t36.5 12.5 q27 0 46 -19.5t19 -47.5q-2 -16 -10 -33.5t-29 -38.5q-72 -74 -167 -111.5t-195 -37.5q-96 0 -180 35.5t-145.5 97t-97.5 145.5t-36 180zM201 561h620q-14 45 -45 84t-72.5 67.5t-92 46t-101.5 17.5q-53 0 -102.5 -16.5t-90.5 -46t-71.5 -68.5t-44.5 -84zM332 1145 q0 31 22.5 54.5t53.5 23.5q25 0 45 -15l196 -147q25 -18 25 -47q0 -20 -15.5 -35.5t-35.5 -15.5q-8 0 -14.5 1t-14.5 5l-219 114q-43 20 -43 62z" />
<glyph unicode="&#xe9;" d="M51 440q0 98 36 182.5t97.5 146.5t145.5 97t180 35q86 0 164 -29.5t139 -83.5q23 -25 49.5 -59.5t49 -71t37 -75.5t14.5 -72q0 -27 -19.5 -46.5t-50.5 -19.5h-715v-4q0 -72 26.5 -133t73 -105t105.5 -70t127 -26q78 0 153.5 33t122.5 92q10 14 23.5 26.5t36.5 12.5 q27 0 46 -19.5t19 -47.5q-2 -16 -10 -33.5t-29 -38.5q-72 -74 -167 -111.5t-195 -37.5q-96 0 -180 35.5t-145.5 97t-97.5 145.5t-36 180zM201 561h620q-14 45 -45 84t-72.5 67.5t-92 46t-101.5 17.5q-53 0 -102.5 -16.5t-90.5 -46t-71.5 -68.5t-44.5 -84zM332 1014 q0 29 24 47l195 147q20 14 47 15q33 0 54.5 -23.5t21.5 -54.5q0 -33 -9.5 -42t-31.5 -20l-221 -114q-8 -4 -14.5 -5t-14.5 -1q-23 0 -37 15t-14 36z" />
<glyph unicode="&#xea;" d="M51 440q0 98 36 182.5t97.5 146.5t145.5 97t180 35q86 0 164 -29.5t139 -83.5q23 -25 49.5 -59.5t49 -71t37 -75.5t14.5 -72q0 -27 -19.5 -46.5t-50.5 -19.5h-715v-4q0 -72 26.5 -133t73 -105t105.5 -70t127 -26q78 0 153.5 33t122.5 92q10 14 23.5 26.5t36.5 12.5 q27 0 46 -19.5t19 -47.5q-2 -16 -10 -33.5t-29 -38.5q-72 -74 -167 -111.5t-195 -37.5q-96 0 -180 35.5t-145.5 97t-97.5 145.5t-36 180zM201 561h620q-14 45 -45 84t-72.5 67.5t-92 46t-101.5 17.5q-53 0 -102.5 -16.5t-90.5 -46t-71.5 -68.5t-44.5 -84zM246 1004 q0 18 22 40l176 150q29 23 64 23q33 0 61 -23l172 -150q18 -23 19 -43q0 -23 -15.5 -39t-37.5 -16q-23 0 -41 19l-160 147l-158 -147q-23 -16 -43 -17q-25 0 -42 15.5t-17 40.5z" />
<glyph unicode="&#xeb;" d="M51 440q0 98 36 182.5t97.5 146.5t145.5 97t180 35q86 0 164 -29.5t139 -83.5q23 -25 49.5 -59.5t49 -71t37 -75.5t14.5 -72q0 -27 -19.5 -46.5t-50.5 -19.5h-715v-4q0 -72 26.5 -133t73 -105t105.5 -70t127 -26q78 0 153.5 33t122.5 92q10 14 23.5 26.5t36.5 12.5 q27 0 46 -19.5t19 -47.5q-2 -16 -10 -33.5t-29 -38.5q-72 -74 -167 -111.5t-195 -37.5q-96 0 -180 35.5t-145.5 97t-97.5 145.5t-36 180zM201 561h620q-14 45 -45 84t-72.5 67.5t-92 46t-101.5 17.5q-53 0 -102.5 -16.5t-90.5 -46t-71.5 -68.5t-44.5 -84zM201 1051 q0 37 23.5 62.5t58.5 25.5t60.5 -26t25.5 -62q0 -39 -26 -63.5t-60 -24.5q-35 0 -58.5 24.5t-23.5 63.5zM637 1051q0 37 23.5 62.5t58.5 25.5t59.5 -26t24.5 -62q0 -39 -24.5 -63.5t-59.5 -24.5t-58.5 24.5t-23.5 63.5z" />
<glyph unicode="&#xec;" horiz-adv-x="268" d="M-35 1145q0 31 22.5 54.5t53.5 23.5q25 0 45 -15l197 -147q27 -20 26 -47q0 -20 -16.5 -35.5t-36.5 -15.5q-8 0 -14 1t-15 5l-219 114q-43 20 -43 62zM76 59v746q0 66 61 65q66 0 66 -65v-746q0 -59 -64 -59q-63 0 -63 59z" />
<glyph unicode="&#xed;" horiz-adv-x="268" d="M-35 1014q0 29 25 47l194 147q20 14 47 15q35 0 56.5 -23.5t21.5 -54.5q0 -27 -10 -38t-33 -24l-219 -114q-10 -4 -16 -5t-15 -1q-23 0 -37 15t-14 36zM76 59v746q0 66 61 65q66 0 66 -65v-746q0 -59 -64 -59q-63 0 -63 59z" />
<glyph unicode="&#xee;" horiz-adv-x="268" d="M-119 1004q0 23 21 40l178 150q23 23 63 23q31 0 60 -23l172 -150q18 -23 18 -43q0 -23 -14 -39t-37 -16t-43 19l-158 147l-157 -147q-23 -16 -45 -17q-25 0 -41.5 15.5t-16.5 40.5zM76 59v746q0 66 61 65q66 0 66 -65v-746q0 -59 -64 -59q-63 0 -63 59z" />
<glyph unicode="&#xef;" horiz-adv-x="268" d="M-166 1051q0 37 24.5 62.5t59.5 25.5t59.5 -26t24.5 -62q0 -39 -24.5 -63.5t-59.5 -24.5t-59.5 24.5t-24.5 63.5zM76 59v746q0 66 61 65q66 0 66 -65v-746q0 -59 -64 -59q-63 0 -63 59zM272 1051q0 37 22.5 62.5t57.5 25.5t60.5 -26t25.5 -62q0 -39 -25.5 -63.5 t-60.5 -24.5t-57.5 24.5t-22.5 63.5z" />
<glyph unicode="&#xf0;" d="M41 440q0 111 38 195t98.5 141.5t138 86t157.5 28.5q68 0 111 -9.5t96 -43.5q-27 41 -60.5 78.5t-72.5 74.5l-160 -43q-25 -8 -51 -8q-33 0 -48.5 18.5t-15.5 45.5q0 20 13.5 37.5t42.5 25.5l112 29q-23 20 -52.5 42.5t-56 44t-45 41t-18.5 33.5q0 20 15.5 41t46.5 21 q14 0 29.5 -8t25.5 -19q14 -8 41 -26.5t55.5 -41t56 -47t44.5 -47.5l186 50l15 3t8 1q31 0 48 -19.5t17 -46.5q0 -23 -13.5 -41t-41.5 -24l-123 -29q47 -61 97 -129t92 -140.5t69 -151.5t27 -163q0 -96 -36 -180t-98.5 -145.5t-146.5 -97t-180 -35.5q-94 0 -178 35.5 t-146.5 97t-99.5 145.5t-37 180zM166 440q0 -68 25.5 -129t71.5 -106t106.5 -72t132.5 -27q68 0 128 27t105 72t72 106.5t27 128.5q0 68 -27 129.5t-72 107.5t-105 72.5t-128 26.5q-72 0 -132.5 -26.5t-106.5 -72.5t-71.5 -107.5t-25.5 -129.5z" />
<glyph unicode="&#xf1;" horiz-adv-x="944" d="M76 59v748q0 63 61 63q66 0 66 -63v-76q33 78 105.5 124t166.5 46q186 0 294 -114.5t108 -319.5v-406q0 -61 -64 -61q-61 0 -61 61v441q0 55 -22.5 105t-60.5 87t-88.5 59.5t-105.5 22.5q-59 0 -108.5 -22.5t-86 -59.5t-57 -87t-20.5 -105v-443q0 -59 -66 -59 q-61 0 -61 59zM182 1016q0 25 15.5 44t41 34.5t58.5 23.5t68 8q43 0 73.5 -9t55 -21.5t44 -21.5t37.5 -9q27 0 45.5 9t34 21.5t29.5 21.5t31 9q16 0 29.5 -15t13.5 -34q0 -27 -15.5 -47t-41 -34.5t-58.5 -21.5t-68 -7q-39 0 -68.5 9t-54 21.5t-46 21.5t-41.5 9 q-29 0 -46.5 -9t-32 -20.5t-27.5 -20.5t-34 -9q-16 0 -29.5 14.5t-13.5 32.5z" />
<glyph unicode="&#xf2;" horiz-adv-x="1024" d="M51 440q0 98 36 182.5t97.5 146.5t145.5 97t180 35q94 0 179 -35t147.5 -97t99.5 -146t37 -183q0 -96 -37 -180t-99.5 -145.5t-147.5 -97t-179 -35.5q-96 0 -180 35.5t-145.5 97t-97.5 145.5t-36 180zM178 440q0 -68 25.5 -129t70.5 -106t105.5 -72t130.5 -27t131 27 t106.5 72t72 106.5t26.5 128.5q0 70 -26.5 130.5t-72 106.5t-106.5 72.5t-131 26.5t-130.5 -26.5t-105.5 -72.5t-70.5 -106.5t-25.5 -130.5zM342 1145q0 31 21.5 54.5t52.5 23.5q27 0 47 -15l196 -147q25 -23 25 -47q0 -20 -15.5 -35.5t-35.5 -15.5t-29 6l-221 114 q-41 23 -41 62z" />
<glyph unicode="&#xf3;" horiz-adv-x="1024" d="M51 440q0 98 36 182.5t97.5 146.5t145.5 97t180 35q94 0 179 -35t147.5 -97t99.5 -146t37 -183q0 -96 -37 -180t-99.5 -145.5t-147.5 -97t-179 -35.5q-96 0 -180 35.5t-145.5 97t-97.5 145.5t-36 180zM178 440q0 -68 25.5 -129t70.5 -106t105.5 -72t130.5 -27t131 27 t106.5 72t72 106.5t26.5 128.5q0 70 -26.5 130.5t-72 106.5t-106.5 72.5t-131 26.5t-130.5 -26.5t-105.5 -72.5t-70.5 -106.5t-25.5 -130.5zM342 1014q0 29 25 47l194 147q20 14 45 15q35 0 56.5 -23.5t21.5 -54.5q0 -27 -10 -38t-33 -24l-219 -114q-10 -4 -15.5 -5 t-13.5 -1q-23 0 -37 15t-14 36z" />
<glyph unicode="&#xf4;" horiz-adv-x="1024" d="M51 440q0 98 36 182.5t97.5 146.5t145.5 97t180 35q94 0 179 -35t147.5 -97t99.5 -146t37 -183q0 -96 -37 -180t-99.5 -145.5t-147.5 -97t-179 -35.5q-96 0 -180 35.5t-145.5 97t-97.5 145.5t-36 180zM178 440q0 -68 25.5 -129t70.5 -106t105.5 -72t130.5 -27t131 27 t106.5 72t72 106.5t26.5 128.5q0 70 -26.5 130.5t-72 106.5t-106.5 72.5t-131 26.5t-130.5 -26.5t-105.5 -72.5t-70.5 -106.5t-25.5 -130.5zM256 1004q0 18 23 40l176 150q29 23 63 23q37 0 60 -23l174 -150q16 -23 16 -43q0 -23 -14.5 -39t-36.5 -16q-23 0 -43 19l-158 147 l-158 -147q-23 -16 -45 -17q-25 0 -41 15.5t-16 40.5z" />
<glyph unicode="&#xf5;" horiz-adv-x="1024" d="M51 440q0 98 36 182.5t97.5 146.5t145.5 97t180 35q94 0 179 -35t147.5 -97t99.5 -146t37 -183q0 -96 -37 -180t-99.5 -145.5t-147.5 -97t-179 -35.5q-96 0 -180 35.5t-145.5 97t-97.5 145.5t-36 180zM178 440q0 -68 25.5 -129t70.5 -106t105.5 -72t130.5 -27t131 27 t106.5 72t72 106.5t26.5 128.5q0 70 -26.5 130.5t-72 106.5t-106.5 72.5t-131 26.5t-130.5 -26.5t-105.5 -72.5t-70.5 -106.5t-25.5 -130.5zM223 1016q0 25 15.5 44t41 34.5t58.5 23.5t68 8q43 0 73.5 -9t55 -21.5t44 -21.5t37.5 -9q27 0 45.5 9t34 21.5t28.5 21.5t32 9 q16 0 29.5 -15t13.5 -34q0 -27 -15.5 -47t-42 -34.5t-59.5 -21.5t-66 -7q-39 0 -68.5 9t-54 21.5t-46 21.5t-41.5 9q-29 0 -47.5 -9t-33 -20.5t-27.5 -20.5t-32 -9q-16 0 -29.5 14.5t-13.5 32.5z" />
<glyph unicode="&#xf6;" horiz-adv-x="1024" d="M51 440q0 98 36 182.5t97.5 146.5t145.5 97t180 35q94 0 179 -35t147.5 -97t99.5 -146t37 -183q0 -96 -37 -180t-99.5 -145.5t-147.5 -97t-179 -35.5q-96 0 -180 35.5t-145.5 97t-97.5 145.5t-36 180zM178 440q0 -68 25.5 -129t70.5 -106t105.5 -72t130.5 -27t131 27 t106.5 72t72 106.5t26.5 128.5q0 70 -26.5 130.5t-72 106.5t-106.5 72.5t-131 26.5t-130.5 -26.5t-105.5 -72.5t-70.5 -106.5t-25.5 -130.5zM211 1051q0 37 23.5 62.5t58.5 25.5t59.5 -26t24.5 -62q0 -39 -24.5 -63.5t-59.5 -24.5t-58.5 24.5t-23.5 63.5zM647 1051 q0 37 23.5 62.5t58.5 25.5t59.5 -26t24.5 -62q0 -39 -24.5 -63.5t-59.5 -24.5t-58.5 24.5t-23.5 63.5z" />
<glyph unicode="&#xf7;" horiz-adv-x="907" d="M8 627q0 66 74 65h747q66 0 66 -67q0 -66 -66 -66h-747q-74 0 -74 68zM365 276q0 47 28.5 76t69.5 29t70.5 -28.5t29.5 -76.5q0 -45 -29.5 -72.5t-70.5 -27.5t-69.5 27.5t-28.5 72.5zM365 965q0 47 28.5 76.5t69.5 29.5t70.5 -29.5t29.5 -76.5q0 -41 -29.5 -70t-70.5 -29 t-69.5 29t-28.5 70z" />
<glyph unicode="&#xf8;" horiz-adv-x="1036" d="M57 440q0 98 36 182.5t98.5 146.5t145.5 97t179 35q78 0 145.5 -22.5t126.5 -63.5l80 88q23 16 41 17q23 0 43.5 -17.5t20.5 -40.5t-21 -43l-80 -84q47 -59 76 -134t29 -161q0 -96 -36 -180t-99.5 -145.5t-147.5 -97t-178 -35.5q-78 0 -146.5 23.5t-125.5 64.5l-68 -72 q-12 -10 -23.5 -16.5t-27.5 -6.5q-25 0 -41 16.5t-16 43.5q0 20 16 43l74 72q-47 59 -74 131.5t-27 158.5zM180 440q0 -55 18.5 -103t47.5 -91l452 477q-78 53 -182 53q-68 0 -129 -26.5t-107.5 -72.5t-73 -107.5t-26.5 -129.5zM332 164q82 -57 184 -58q70 0 131.5 27 t106.5 72t70.5 106.5t25.5 128.5q0 117 -64 199z" />
<glyph unicode="&#xf9;" horiz-adv-x="944" d="M76 406v399q0 66 61 65q66 0 66 -65v-434q0 -59 20.5 -109.5t57 -87.5t86 -58.5t108.5 -21.5q57 0 107.5 21.5t88.5 58.5t59.5 87t21.5 110v434q0 66 61 65q63 0 64 -65v-748q0 -57 -64 -57q-61 0 -61 57v86q-35 -80 -107 -128t-170 -48q-186 0 -292.5 117t-106.5 322z M301 1145q0 31 22.5 54.5t51.5 23.5q27 0 47 -15l196 -147q25 -18 25 -47q0 -20 -15.5 -35.5t-35.5 -15.5t-29 6l-221 114q-41 23 -41 62z" />
<glyph unicode="&#xfa;" horiz-adv-x="944" d="M76 406v399q0 66 61 65q66 0 66 -65v-434q0 -59 20.5 -109.5t57 -87.5t86 -58.5t108.5 -21.5q57 0 107.5 21.5t88.5 58.5t59.5 87t21.5 110v434q0 66 61 65q63 0 64 -65v-748q0 -57 -64 -57q-61 0 -61 57v86q-35 -80 -107 -128t-170 -48q-186 0 -292.5 117t-106.5 322z M301 1014q0 29 25 47l194 147q20 14 47 15q33 0 54.5 -23.5t21.5 -54.5q0 -33 -9 -42t-32 -20l-221 -114q-8 -4 -14.5 -5t-14.5 -1q-23 0 -37 15t-14 36z" />
<glyph unicode="&#xfb;" horiz-adv-x="944" d="M76 406v399q0 66 61 65q66 0 66 -65v-434q0 -59 20.5 -109.5t57 -87.5t86 -58.5t108.5 -21.5q57 0 107.5 21.5t88.5 58.5t59.5 87t21.5 110v434q0 66 61 65q63 0 64 -65v-748q0 -57 -64 -57q-61 0 -61 57v86q-35 -80 -107 -128t-170 -48q-186 0 -292.5 117t-106.5 322z M215 1004q0 18 23 40l176 150q29 23 63 23q33 0 62 -23l172 -150q18 -23 18 -43q0 -23 -15.5 -39t-37.5 -16q-23 0 -41 19l-160 147l-158 -147q-23 -16 -43 -17q-25 0 -42 15.5t-17 40.5z" />
<glyph unicode="&#xfc;" horiz-adv-x="944" d="M76 406v399q0 66 61 65q66 0 66 -65v-434q0 -59 20.5 -109.5t57 -87.5t86 -58.5t108.5 -21.5q57 0 107.5 21.5t88.5 58.5t59.5 87t21.5 110v434q0 66 61 65q63 0 64 -65v-748q0 -57 -64 -57q-61 0 -61 57v86q-35 -80 -107 -128t-170 -48q-186 0 -292.5 117t-106.5 322z M170 1051q0 37 23.5 62.5t58.5 25.5t60.5 -26t25.5 -62q0 -39 -25.5 -63.5t-60.5 -24.5t-58.5 24.5t-23.5 63.5zM606 1051q0 37 23.5 62.5t58.5 25.5t59.5 -26t24.5 -62q0 -39 -24.5 -63.5t-59.5 -24.5t-58.5 24.5t-23.5 63.5z" />
<glyph unicode="&#xfd;" horiz-adv-x="833" d="M14 805q0 29 20.5 47t45.5 18q35 0 49 -32l295 -633l278 629q14 37 52 36q27 0 46 -17t19 -46q0 -14 -8 -29l-555 -1218q-8 -16 -23.5 -24.5t-29.5 -8.5q-25 0 -42.5 15.5t-17.5 43.5q0 6 1 15.5t3 19.5l203 453l-330 702q-6 18 -6 29zM246 1014q0 29 24 47l195 147 q20 14 45 15q35 0 56.5 -23.5t21.5 -54.5q0 -27 -10.5 -38t-32.5 -24l-219 -114q-10 -4 -15.5 -5t-13.5 -1q-23 0 -37 15t-14 36z" />
<glyph unicode="&#xfe;" horiz-adv-x="962" d="M78 -408v1668q0 29 17.5 47t45.5 18q27 0 44.5 -18.5t17.5 -46.5v-535q47 74 132 125t183 51q94 0 176 -35t141.5 -97t93.5 -146t34 -183q0 -96 -34 -180t-93.5 -145.5t-141.5 -97t-176 -35.5q-98 0 -186 48t-129 130v-568q0 -27 -16.5 -46t-45.5 -19q-35 0 -49 19.5 t-14 45.5zM203 440q0 -68 23.5 -129t65.5 -106t100.5 -72t125.5 -27q70 0 127 27t99 72t66 106.5t24 128.5q0 68 -24 129.5t-66 107.5t-99 72.5t-127 26.5q-68 0 -126 -26.5t-100 -72.5t-65.5 -107.5t-23.5 -129.5z" />
<glyph unicode="&#xff;" horiz-adv-x="833" d="M14 805q0 29 20.5 47t45.5 18q35 0 49 -32l295 -633l278 629q14 37 52 36q27 0 46 -17t19 -46q0 -14 -8 -29l-555 -1218q-8 -16 -23.5 -24.5t-29.5 -8.5q-25 0 -42.5 15.5t-17.5 43.5q0 6 1 15.5t3 19.5l203 453l-330 702q-6 18 -6 29zM115 1051q0 37 23.5 62.5 t58.5 25.5t59.5 -26t24.5 -62q0 -39 -25 -63.5t-59 -24.5q-35 0 -58.5 24.5t-23.5 63.5zM551 1051q0 37 23.5 62.5t58.5 25.5t59.5 -26t24.5 -62q0 -39 -24.5 -63.5t-59.5 -24.5t-58.5 24.5t-23.5 63.5z" />
<glyph unicode="&#x152;" horiz-adv-x="2113" d="M51 643q0 139 52.5 264t143.5 220.5t214 150.5t266 55q180 0 326.5 -77.5t238.5 -208.5v188q0 29 19.5 47t46.5 18h645q27 0 46 -18t19 -47q0 -27 -19 -46.5t-46 -19.5h-578v-383h543q29 0 48.5 -19t19.5 -48q0 -27 -19.5 -47.5t-48.5 -20.5h-543v-520h574q27 0 45 -18.5 t18 -46.5q0 -29 -18.5 -47.5t-44.5 -18.5h-641q-27 0 -46.5 18.5t-19.5 47.5v182q-92 -129 -236.5 -205t-318.5 -76q-141 0 -266 53.5t-218 144.5t-147.5 214t-54.5 264zM188 643q0 -115 42 -214t116 -174t174.5 -118t214.5 -43q117 0 217.5 43t174 119t116.5 176t43 217 q0 113 -43 214.5t-118.5 177t-176 119.5t-213.5 44q-117 0 -217 -45t-173 -121.5t-115 -179t-42 -215.5z" />
<glyph unicode="&#x153;" horiz-adv-x="1830" d="M61 440q0 98 36 182.5t98.5 146.5t146.5 97t180 35q129 0 234.5 -64.5t165.5 -168.5q57 104 164.5 168.5t236.5 64.5q86 0 163 -29.5t136 -83.5q25 -23 51.5 -57.5t48 -73.5t36 -77.5t14.5 -69.5q0 -27 -18.5 -46.5t-49.5 -19.5h-715v-4q0 -72 26.5 -133t72 -105 t106.5 -70t129 -26q78 0 151.5 33t120.5 92q12 14 25.5 26.5t34.5 12.5q27 0 47 -19.5t20 -47.5q-4 -35 -41 -72q-147 -150 -358 -149q-131 0 -237.5 63.5t-163.5 167.5q-59 -104 -164 -167.5t-236 -63.5q-96 0 -180 35.5t-146.5 97t-98.5 145.5t-36 180zM186 440 q0 -68 27 -129t73 -106t106.5 -72t129.5 -27q68 0 128.5 27t106.5 72t72.5 106.5t26.5 128.5q0 68 -26.5 129.5t-72.5 107.5t-106.5 72.5t-128.5 26.5q-70 0 -130 -26.5t-106 -72.5t-73 -107.5t-27 -129.5zM1012 561h618q-14 45 -44 84t-71.5 67.5t-91 46t-100.5 17.5 q-53 0 -102.5 -17.5t-91.5 -46t-72.5 -67.5t-44.5 -84z" />
<glyph unicode="&#x178;" horiz-adv-x="903" d="M14 1227q0 31 21.5 52t48.5 21q31 0 49 -30l316 -592l315 590q8 16 23.5 24t31.5 8q27 0 49.5 -17t22.5 -46q0 -10 -3 -16.5t-7 -16.5l-369 -647v-487q0 -70 -59 -70q-68 0 -68 70v487l-362 635q-8 14 -9 35zM147 1481q0 37 24.5 62.5t59.5 25.5t59.5 -25.5t24.5 -62.5 q0 -39 -24.5 -63.5t-59.5 -24.5t-59.5 24.5t-24.5 63.5zM586 1481q0 37 23.5 62.5t58.5 25.5t59.5 -25.5t24.5 -62.5q0 -39 -25 -63.5t-59 -24.5q-35 0 -58.5 24.5t-23.5 63.5z" />
<glyph unicode="&#x2c6;" horiz-adv-x="598" d="M41 1004q0 20 20 40l179 150q23 23 63 23q31 0 59 -23l175 -150q16 -23 16 -43q0 -23 -14.5 -39t-36.5 -16q-23 0 -43 19l-158 147l-158 -147q-23 -16 -45 -17q-25 0 -41 15.5t-16 40.5z" />
<glyph unicode="&#x2dc;" horiz-adv-x="768" d="M100 1016q0 25 15.5 44t40 34.5t57.5 23.5t68 8q43 0 74.5 -9t55 -21.5t43 -21.5t40.5 -9q27 0 45 9t33.5 21.5t28.5 21.5t32 9q16 0 28.5 -15t12.5 -34q0 -53 -56.5 -81.5t-123.5 -28.5q-39 0 -69 9t-54.5 21.5t-47 21.5t-42.5 9q-29 0 -46.5 -9t-31 -20.5t-26.5 -20.5 t-34 -9q-18 0 -30.5 14.5t-12.5 32.5z" />
<glyph unicode="&#x2000;" horiz-adv-x="825" />
<glyph unicode="&#x2001;" horiz-adv-x="1651" />
<glyph unicode="&#x2002;" horiz-adv-x="825" />
<glyph unicode="&#x2003;" horiz-adv-x="1651" />
<glyph unicode="&#x2004;" horiz-adv-x="550" />
<glyph unicode="&#x2005;" horiz-adv-x="412" />
<glyph unicode="&#x2006;" horiz-adv-x="275" />
<glyph unicode="&#x2007;" horiz-adv-x="275" />
<glyph unicode="&#x2008;" horiz-adv-x="206" />
<glyph unicode="&#x2009;" horiz-adv-x="330" />
<glyph unicode="&#x200a;" horiz-adv-x="91" />
<glyph unicode="&#x2010;" horiz-adv-x="694" d="M78 442q0 66 69 66h404q63 0 63 -68q0 -66 -63 -65h-404q-70 0 -69 67z" />
<glyph unicode="&#x2011;" horiz-adv-x="694" d="M78 442q0 66 69 66h404q63 0 63 -68q0 -66 -63 -65h-404q-70 0 -69 67z" />
<glyph unicode="&#x2012;" horiz-adv-x="694" d="M78 442q0 66 69 66h404q63 0 63 -68q0 -66 -63 -65h-404q-70 0 -69 67z" />
<glyph unicode="&#x2013;" horiz-adv-x="974" d="M74 442q0 66 73 66h687q68 0 67 -68q0 -66 -67 -65h-687q-74 0 -73 67z" />
<glyph unicode="&#x2014;" horiz-adv-x="1435" d="M76 442q0 66 71 66h1147q66 0 66 -68q0 -66 -66 -65h-1147q-72 0 -71 67z" />
<glyph unicode="&#x2018;" horiz-adv-x="292" d="M43 1116q0 43 14.5 84t36 72t45 50t41.5 19q16 0 25.5 -9t9.5 -19q0 -14 -5 -23.5t-12.5 -18.5t-12.5 -20.5t-5 -29.5q0 -12 8.5 -21.5t19.5 -21t19.5 -27.5t8.5 -45q0 -41 -26 -64.5t-71 -23.5q-47 0 -71.5 28.5t-24.5 69.5z" />
<glyph unicode="&#x2019;" horiz-adv-x="290" d="M53 1239q0 41 25.5 63.5t71.5 22.5q49 0 73.5 -26.5t24.5 -69.5t-14.5 -84t-36 -72t-45 -49t-41.5 -18q-35 0 -35 26q0 14 6 23.5t12 18.5t12.5 20.5t6.5 31.5q0 12 -9.5 20.5t-20.5 20t-20.5 27.5t-9.5 45z" />
<glyph unicode="&#x201a;" horiz-adv-x="290" d="M53 84q0 43 25.5 67.5t71.5 24.5q49 0 73.5 -28.5t24.5 -69.5q0 -45 -14.5 -86t-36 -72t-45 -49t-41.5 -18q-35 0 -35 28q0 14 6 23.5t12 17.5t12.5 19.5t6.5 31.5q0 12 -9.5 21.5t-20.5 20t-20.5 25.5t-9.5 44z" />
<glyph unicode="&#x201c;" horiz-adv-x="589" d="M59 1116q0 43 14.5 84t36 72t46.5 50t43 19q16 0 25 -9t9 -19q0 -14 -6 -23.5t-12 -18.5t-12 -20.5t-6 -29.5q0 -12 9 -21.5t19.5 -21t19.5 -27.5t9 -45q0 -41 -25.5 -64.5t-70.5 -23.5q-47 0 -73 28.5t-26 69.5zM330 1116q0 43 13 84t34.5 72t45 50t46.5 19 q16 0 25.5 -9t9.5 -19q0 -14 -6 -23.5t-13.5 -18.5t-13.5 -20.5t-6 -29.5q0 -12 9 -21.5t19.5 -21t19.5 -27.5t9 -45q0 -41 -26.5 -64.5t-69.5 -23.5q-47 0 -71.5 28.5t-24.5 69.5z" />
<glyph unicode="&#x201d;" horiz-adv-x="589" d="M66 1239q0 86 98 86q47 0 70.5 -26.5t23.5 -69.5t-14.5 -84t-35 -72t-45 -49t-44.5 -18q-35 0 -35 26q0 14 6 23.5t13.5 18.5t13.5 20.5t6 31.5q0 12 -9.5 20.5t-19.5 20t-19 27.5t-9 45zM336 1239q0 86 94 86q47 0 72.5 -26.5t25.5 -69.5t-14 -84t-35.5 -72t-46 -49 t-43.5 -18q-35 0 -35 26q0 14 6.5 23.5t12.5 18.5t12 20.5t6 31.5q0 12 -8 20.5t-19.5 20t-19.5 27.5t-8 45z" />
<glyph unicode="&#x201e;" horiz-adv-x="589" d="M66 84q0 43 25.5 67.5t72.5 24.5t70.5 -28.5t23.5 -69.5q0 -45 -14.5 -86t-35 -72t-45 -49t-44.5 -18q-35 0 -35 28q0 14 6 23.5t13.5 17.5t13.5 19.5t6 31.5q0 12 -9.5 21.5t-19.5 20t-19 25.5t-9 44zM336 84q0 43 24.5 67.5t69.5 24.5q47 0 72.5 -28.5t25.5 -69.5 q0 -45 -14 -86t-35.5 -72t-46 -49t-43.5 -18q-35 0 -35 28q0 14 6.5 23.5t12.5 17.5t12 19.5t6 31.5q0 12 -8 21.5t-19.5 20t-19.5 25.5t-8 44z" />
<glyph unicode="&#x2022;" horiz-adv-x="731" d="M53 506q0 63 24.5 119.5t66.5 99.5t99.5 67.5t123.5 24.5q63 0 119.5 -24.5t99.5 -67.5t67.5 -99.5t24.5 -119.5q0 -66 -24.5 -122t-67.5 -98t-99.5 -66.5t-119.5 -24.5q-66 0 -123.5 24.5t-99.5 66.5t-66.5 98t-24.5 122z" />
<glyph unicode="&#x2026;" horiz-adv-x="1548" d="M74 98q0 47 27.5 76t72.5 29q37 0 67.5 -29t30.5 -76q0 -45 -30.5 -73.5t-67.5 -28.5q-45 0 -72.5 28.5t-27.5 73.5zM678 98q0 47 28.5 76t71.5 29q41 0 70 -29t29 -76q0 -45 -29 -73.5t-70 -28.5q-43 0 -71.5 28.5t-28.5 73.5zM1274 98q0 47 29.5 76t72.5 29 q37 0 68 -29t31 -76q0 -45 -31 -73.5t-68 -28.5q-43 0 -72.5 28.5t-29.5 73.5z" />
<glyph unicode="&#x202f;" horiz-adv-x="330" />
<glyph unicode="&#x205f;" horiz-adv-x="412" />
<glyph unicode="&#x20ac;" horiz-adv-x="1425" d="M37 465q0 63 72 63h59q-6 55 -6 115q0 23 1 44.5t1 43.5h-55q-72 0 -72 68q0 66 72 65h86q37 98 98 184.5t144 149t184.5 99t218.5 36.5q141 0 255.5 -42t213.5 -134q20 -20 20 -51q0 -27 -19.5 -46.5t-45.5 -19.5q-31 0 -52 25q-72 72 -169 103.5t-203 31.5 q-86 0 -163 -26.5t-141.5 -71.5t-114.5 -106.5t-83 -131.5h713q66 0 65 -67q0 -66 -65 -66h-750q-4 -27 -7 -48t-3 -40q0 -29 4 -57.5t8 -57.5h537q68 0 67 -65q0 -66 -67 -66h-490q33 -66 84 -121t115.5 -94t138.5 -60.5t152 -21.5q135 0 237.5 46.5t179.5 138.5 q18 20 52 20q27 0 47 -17.5t20 -45.5q0 -20 -16 -43q-98 -111 -232.5 -171.5t-281.5 -60.5q-109 0 -207 31t-179 86t-144.5 131t-102.5 166l-6 16h-98q-72 0 -72 68z" />
<glyph unicode="&#x2122;" horiz-adv-x="1320" d="M57 1241q0 59 60 59h323q61 0 62 -61q0 -55 -62 -55h-102v-520q0 -61 -59 -62q-61 0 -62 62v520h-100q-59 0 -60 57zM569 664v563q0 74 68 73q47 0 65 -43l203 -452l203 452q18 43 80 43q55 0 55 -73v-563q0 -61 -55 -62q-59 0 -60 62v358l-172 -385q-8 -18 -24.5 -26.5 t-26.5 -8.5q-35 0 -49 37l-170 379v-354q0 -61 -57 -62q-59 0 -60 62z" />
<glyph unicode="&#x25fc;" horiz-adv-x="870" d="M0 0v870h870v-870h-870z" />
</font>
</defs>
</svg>
